<svg width="50" height="50" viewBox="0 0 50 50" fill="none" xmlns="http://www.w3.org/2000/svg">
<path d="M49.6338 32.8575C49.3769 31.9072 49.0999 30.9618 48.7797 30.0291C48.1849 28.2014 47.3452 26.4628 46.2834 24.8607C45.7763 24.0458 45.1077 23.3434 44.3188 22.7967C43.5299 22.2501 42.6374 21.8709 41.6963 21.6823C40.7915 21.4885 39.854 21.5087 38.9584 21.7413C38.224 21.9749 37.5377 22.3387 36.9323 22.8155C36.3088 23.3345 35.7666 23.9441 35.3239 24.6239C34.8297 25.3488 34.3885 26.1083 34.0036 26.8965C33.3212 28.3209 32.724 29.7845 32.2154 31.2798C31.6444 32.8849 31.1896 35.0454 32.6577 36.3657C33.4171 36.9055 34.306 37.2345 35.2338 37.3193C36.2708 37.5165 37.3209 37.6374 38.3756 37.6811C40.5004 37.746 42.6266 37.6154 44.7275 37.291C45.7681 37.1814 46.8 37.0007 47.8159 36.7502C48.2102 36.6626 48.5832 36.4973 48.9131 36.2641C49.2429 36.0309 49.523 35.7343 49.737 35.3917C50.0311 34.5653 49.9942 33.6572 49.6338 32.8575V32.8575Z" fill="#F7E4BB"/>
<path d="M18.0088 32.8575C17.7519 31.9072 17.4749 30.9618 17.1547 30.0291C16.56 28.2014 15.7202 26.4628 14.6584 24.8607C14.1513 24.0458 13.4827 23.3434 12.6938 22.7967C11.9049 22.2501 11.0124 21.8709 10.0713 21.6823C9.16653 21.4885 8.229 21.5087 7.33342 21.7413C6.59905 21.9749 5.91275 22.3388 5.30737 22.8156C4.68383 23.3346 4.14164 23.9441 3.69889 24.624C3.20478 25.3488 2.76356 26.1083 2.37864 26.8966C1.69619 28.3209 1.09908 29.7846 0.590451 31.2798C0.0193709 32.885 -0.435409 35.0455 1.03272 36.3657C1.79215 36.9055 2.68099 37.2345 3.60884 37.3193C4.64585 37.5166 5.69592 37.6375 6.75062 37.6811C8.87539 37.746 11.0016 37.6155 13.1025 37.2911C14.1431 37.1815 15.175 37.0008 16.1909 36.7502C16.5853 36.6626 16.9582 36.4974 17.2881 36.2641C17.6179 36.0309 17.898 35.7343 18.112 35.3917C18.4062 34.5653 18.3692 33.6572 18.0088 32.8575V32.8575Z" fill="#F7E4BB"/>
<path d="M37.2029 43.1133C36.8612 41.8991 36.4929 40.691 36.067 39.4991C35.2716 37.1546 34.1543 34.932 32.7473 32.895C32.0563 31.8423 31.1598 30.94 30.1116 30.2421C29.0634 29.5442 27.8851 29.0652 26.6473 28.8337C25.4433 28.586 24.1991 28.6118 23.0063 28.9091C22.0346 29.205 21.1226 29.6696 20.312 30.2817C19.4871 30.9403 18.766 31.7193 18.173 32.5925C17.5174 33.5162 16.9306 34.4868 16.4173 35.4965C15.5111 37.3132 14.717 39.1837 14.0393 41.0974C13.2798 43.1484 12.675 45.9091 14.6274 47.5961C15.6461 48.289 16.8258 48.7086 18.0532 48.8146C19.4333 49.0668 20.8295 49.2213 22.2313 49.2769C25.0561 49.3599 27.8828 49.1932 30.6782 48.7785C32.061 48.6387 33.433 48.4078 34.7853 48.0874C35.833 47.8694 36.7516 47.2453 37.3401 46.3515C37.9165 45.3153 37.4989 44.1656 37.2029 43.1133Z" fill="white"/>
<path d="M37.2393 43.1258C36.8334 41.8731 36.2041 40.6274 35.8512 39.7522C34.9813 37.5919 33.9573 35.4969 32.7873 33.4834C32.4375 32.8447 32.025 32.2424 31.5558 31.6854C30.9122 30.9993 30.164 30.4195 29.3388 29.9677C28.8886 29.6047 28.3591 29.353 27.7934 29.2331C27.2276 29.1133 26.6415 29.1286 26.0828 29.2779C25.0886 29.5215 24.1552 29.967 23.3407 30.5868C20.0632 33.0625 18.1003 38.1281 17.3243 42.2503C16.9789 43.7684 17.1127 45.3564 17.7074 46.7953C18.3755 48.1983 19.8386 48.5249 21.1523 48.8146C22.3098 49.0662 23.4862 49.2209 24.6693 49.277C27.0503 49.3597 29.4334 49.1927 31.7796 48.7785C32.9482 48.6378 34.104 48.4067 35.2369 48.0874C35.6954 47.9615 36.1231 47.7424 36.4931 47.4437C36.8631 47.145 37.1676 46.7732 37.3874 46.3515C37.7307 45.2939 37.6781 44.1475 37.2393 43.1258V43.1258Z" fill="#E8B23B"/>
<path d="M40.94 21.5518C43.3166 21.5518 45.2432 19.6252 45.2432 17.2486C45.2432 14.8719 43.3166 12.9453 40.94 12.9453C38.5633 12.9453 36.6367 14.8719 36.6367 17.2486C36.6367 19.6252 38.5633 21.5518 40.94 21.5518Z" fill="#F7E4BB"/>
<path d="M25.0647 26.1062C28.865 26.1062 31.9458 23.0254 31.9458 19.2251C31.9458 15.4248 28.865 12.344 25.0647 12.344C21.2644 12.344 18.1836 15.4248 18.1836 19.2251C18.1836 23.0254 21.2644 26.1062 25.0647 26.1062Z" fill="white"/>
<path d="M26.4576 25.6977C29.489 25.6977 31.9465 22.7999 31.9465 19.2252C31.9465 15.6505 29.489 12.7527 26.4576 12.7527C23.4262 12.7527 20.9688 15.6505 20.9688 19.2252C20.9688 22.7999 23.4262 25.6977 26.4576 25.6977Z" fill="#E8B23B"/>
<path d="M9.18997 21.5518C11.5666 21.5518 13.4932 19.6252 13.4932 17.2486C13.4932 14.8719 11.5666 12.9453 9.18997 12.9453C6.81335 12.9453 4.88672 14.8719 4.88672 17.2486C4.88672 19.6252 6.81335 21.5518 9.18997 21.5518Z" fill="#F7E4BB"/>
<path d="M19.3602 14.1259C18.8825 14.465 18.8912 15.0714 18.5607 15.5052C18.175 16.0659 17.9168 16.7043 17.8042 17.3755C17.8216 17.4949 17.908 17.5968 17.8743 17.7133C17.6461 18.0873 17.5345 18.5207 17.5536 18.9584C17.4382 19.2707 17.5588 19.5774 17.4722 19.8937C17.3793 20.0835 17.5275 20.2549 17.5128 20.4488C17.5217 20.7551 17.5915 21.0566 17.7181 21.3357C17.826 21.9451 18.0772 22.5202 18.4509 23.0137C18.5782 23.2375 18.598 23.5315 18.796 23.7096C19.0489 23.8765 19.2778 24.0773 19.4763 24.3063C19.5565 24.3321 19.6262 24.3831 19.6752 24.4516C19.7241 24.5202 19.7497 24.6026 19.7481 24.6868C20.0959 25.2287 20.8531 25.3407 21.3462 25.6637L21.3438 25.6679C21.4578 25.8152 21.6622 25.8503 21.773 25.9193C21.9559 26.0893 22.1839 26.2031 22.4298 26.247C22.7202 26.5249 23.0984 26.693 23.4994 26.7221C23.8383 26.8387 24.206 26.8424 24.5472 26.7326C25.4675 26.6442 26.6341 26.8972 27.3487 26.2053C27.9476 26.2576 28.2146 26.024 29.0055 25.6847C29.8622 25.2441 30.6159 24.6271 31.2171 23.8743C31.3853 23.6155 31.5303 23.3424 31.6504 23.058C31.811 22.9047 31.9378 22.7194 32.0227 22.5142C32.1075 22.309 32.1486 22.0884 32.1433 21.8664C32.3766 21.4584 32.1122 21.3371 32.4495 21.0963C32.7632 20.5354 32.4505 19.8251 32.5045 19.2249H32.5094C32.5306 19.0598 32.5294 18.8926 32.5057 18.7278C32.5133 18.5799 32.5814 18.4532 32.5379 18.3014C32.3979 18.0101 32.5146 17.7353 32.5214 17.439C32.4274 17.0152 32.2859 16.6034 32.0995 16.2113C31.8665 15.9954 31.6754 15.7382 31.5358 15.4528C31.2419 14.8396 30.8199 14.2966 30.2983 13.8604C30.1837 13.8187 30.0504 13.8445 29.9635 13.7602C29.8122 13.3404 29.4222 13.1158 29.0518 12.8531C28.8324 12.6058 28.5185 12.5358 28.2799 12.3175C27.8655 12.0492 27.397 11.8759 26.9079 11.8099C26.3283 11.5916 25.704 11.5195 25.09 11.5997C24.8345 11.5528 24.5744 11.5359 24.3151 11.5494C24.0483 11.6958 23.7578 11.7939 23.4569 11.8392C23.3971 11.8999 23.3183 11.9382 23.2337 11.9477C23.1491 11.9571 23.0637 11.9372 22.9921 11.8912C22.3505 11.9068 21.8714 12.5258 21.3463 12.786L21.3993 12.8776L21.3439 12.7819C21.1884 12.8421 21.0418 12.9232 20.9081 13.0229C20.6757 13.1094 20.4663 13.248 20.2958 13.428C19.9124 13.545 19.5816 13.7917 19.3602 14.1259V14.1259ZM20.2044 15.5197C20.6229 14.9354 21.1639 14.4496 21.7896 14.096C21.9449 14.019 21.9878 13.7497 22.1832 13.7129C22.431 13.6695 22.6669 13.5744 22.8755 13.4337C23.2096 13.063 23.5011 13.1 23.9737 13.0382C24.1891 13.104 24.3575 12.9738 24.5552 12.9444C25.1566 13.1412 25.7143 13.0094 26.1905 13.2211C26.5151 13.3934 26.9112 13.2872 27.2413 13.4393C28.3495 13.9073 29.2956 14.6911 29.9615 15.693C30.6185 16.4758 31.0332 17.433 31.1549 18.4477C31.1229 18.7981 31.1629 19.1513 31.2726 19.4856C31.0086 20.0752 31.4049 20.5091 31.1144 21.0014C31.0538 21.2036 30.9627 21.3953 30.8443 21.5701C30.8369 21.6878 30.8055 21.8027 30.7521 21.9078C30.6986 22.0129 30.6242 22.106 30.5334 22.1813C30.1742 22.4645 30.1013 22.9753 29.7003 23.2005C29.3885 23.3967 29.277 23.7872 28.9891 24.0081C28.6391 24.2931 28.2318 24.4401 27.8814 24.6873C26.9444 25.0391 25.9649 25.2648 24.9685 25.3585C23.9296 25.3005 22.9139 25.0285 21.9849 24.5597C21.6284 24.51 21.4976 24.1298 21.1399 24.0201C20.6926 23.9286 20.5109 23.6003 20.2476 23.2638C20.1348 22.9166 19.7868 22.8855 19.775 22.4782C19.6612 22.15 19.5148 21.834 19.3379 21.5349C19.2624 21.0885 19.1377 20.6519 18.966 20.2329C18.8009 18.5643 19.2404 16.8918 20.2044 15.5198V15.5197Z" fill="black"/>
<path d="M49.7395 31.5222C49.5486 31.0412 49.714 30.4539 49.4971 29.987C49.5629 29.6436 49.5161 29.2881 49.3637 28.9735C49.3131 28.6652 49.1715 28.3792 48.957 28.152C48.6748 27.687 48.503 26.8895 48.1364 26.2733C48.0838 26.0542 47.8482 26.0457 47.7351 25.9091C47.6251 25.3909 47.4015 24.9036 47.0803 24.4824C46.9497 24.3135 46.8496 24.1232 46.7845 23.9199C46.4881 23.6864 46.2963 23.3195 45.9685 23.1085C45.5905 22.6775 45.1188 22.339 44.5895 22.1189C44.4493 21.9693 44.2791 21.851 44.0901 21.7718C43.901 21.6925 43.6974 21.6541 43.4924 21.659C44.2003 21.2232 44.7971 20.6285 45.2354 19.9221C45.6736 19.2157 45.9414 18.4169 46.0175 17.5891C46.008 17.3665 45.9143 17.1451 45.8869 16.9377C45.9494 16.6371 45.9105 16.3242 45.7761 16.048C45.3209 15.5109 45.3412 14.6881 44.7771 14.2434C44.5638 13.7228 44.1673 13.2983 43.6625 13.0498C43.251 12.6636 42.7161 12.4356 42.1525 12.4061C41.2981 12.1323 40.3821 12.1153 39.5181 12.3574C38.6542 12.5994 37.8803 13.0898 37.2924 13.7676C36.7885 14.2498 36.4075 14.8458 36.1814 15.5056C35.9553 16.1654 35.8905 16.8697 35.9926 17.5597C35.7959 18.2422 36.3782 18.6674 36.5074 19.2725C36.6169 19.6459 36.822 19.9842 37.1026 20.2539C37.376 20.8221 37.8214 21.2897 38.3755 21.5906C38.1718 21.6465 38.0479 21.8364 37.9089 21.9781C37.5586 22.2837 37.1057 22.3635 36.7827 22.7049C36.3513 23.0421 36.0452 23.1839 35.9261 23.7271C35.5037 23.8393 35.3227 24.1838 35.0479 24.5027C34.8093 24.6746 34.7024 24.9431 34.4832 25.1287C34.3156 25.2116 34.322 25.4094 34.1999 25.5326C34.0247 25.7381 33.8937 25.9776 33.8152 26.2361C33.7052 26.4848 33.5612 26.717 33.3874 26.9261C33.2534 27.1625 33.2761 27.4582 33.1564 27.6986C33.0561 27.9017 32.8593 28.0631 32.8273 28.2889C32.8497 28.5545 32.8088 28.8216 32.7079 29.0684C32.7307 29.1409 32.7243 29.2194 32.69 29.2872C32.6557 29.3551 32.5962 29.4068 32.5243 29.4314C32.213 29.8972 32.4265 30.5473 32.2582 31.0498C32.0927 31.0025 32.0277 30.7842 31.8927 30.6755C31.7357 30.5487 31.5123 30.4894 31.361 30.3726C31.1084 29.9051 30.6009 29.8264 30.1671 29.6194C29.8429 29.3 29.4477 29.0619 29.0139 28.9245C28.7033 28.6358 28.3259 28.4288 27.9154 28.3221C27.2887 28.1855 27.0077 27.889 26.2884 28.0092C25.6025 27.9019 24.9074 27.8649 24.214 27.8987C21.9963 28.0003 19.893 28.912 18.3026 30.461C18.2227 30.6402 18.0314 30.8128 17.8849 30.5608C17.7721 30.3988 17.8258 30.1592 17.7152 29.9898C17.5115 29.7951 17.3879 29.5314 17.3686 29.2503C17.3089 28.9088 17.1923 28.5797 17.0236 28.2768C16.9309 27.6899 16.752 27.1198 16.4927 26.585C16.2772 25.9697 15.7982 25.6353 15.3704 24.6955C14.8022 23.8592 14.12 23.1065 13.3434 22.4592C12.8757 22.1085 12.2771 21.9635 11.7797 21.638C12.4773 21.1993 13.0645 20.606 13.4959 19.9038C13.9273 19.2017 14.1912 18.4097 14.2673 17.5892C14.2581 17.3665 14.1644 17.1452 14.1366 16.9378C14.1991 16.6371 14.1602 16.3243 14.0261 16.0481C13.5707 15.511 13.5913 14.688 13.0268 14.2435C12.8135 13.723 12.4172 13.2984 11.9125 13.0499C11.501 12.6637 10.966 12.4357 10.4025 12.4061C9.54806 12.1323 8.63204 12.1153 7.76807 12.3574C6.9041 12.5994 6.1302 13.0898 5.54239 13.7677C5.0385 14.2499 4.65752 14.8459 4.43137 15.5056C4.20522 16.1654 4.14049 16.8698 4.2426 17.5597C4.04546 18.2424 4.6286 18.6673 4.75711 19.2726C4.85748 19.4992 4.96157 19.7206 5.05119 19.9499C5.26212 20.1284 5.42826 20.3539 5.53627 20.6082C5.79379 21.1276 6.37982 21.3434 6.78437 21.7141C6.54302 21.7216 6.31416 21.8232 6.1467 21.9971C5.72128 22.0471 5.32007 22.2216 4.99337 22.4986C4.84933 22.6521 4.67082 22.7691 4.47259 22.8399C4.06216 23.0042 3.95736 23.4662 3.65109 23.7402C1.82751 25.7761 0.657564 28.3128 0.292918 31.0215L0.355658 31.0348C0.394978 31.3493 0.284388 31.6874 0.314808 32.0015C0.298938 32.1775 0.214478 32.3606 0.345698 32.529C0.433948 32.8008 0.583368 32.7929 0.813698 32.7543C1.0439 32.6901 1.04513 32.5553 1.1467 32.3971C1.31289 32.2084 1.40909 31.9683 1.41916 31.717C1.45352 31.4021 1.48316 31.4668 1.63156 31.3045L1.44089 31.2642V31.2641L1.54562 31.2863C1.60217 31.1589 1.64016 31.0241 1.65842 30.8859C1.76587 30.7097 1.82878 30.51 1.84171 30.304C2.06807 30.0672 2.21117 29.7631 2.2494 29.4377C2.38681 29.1804 2.43881 28.8861 2.39787 28.5973C2.59277 27.997 2.84473 27.4168 3.15028 26.8646C3.30447 26.6625 3.04398 26.347 3.35642 26.2627C3.63083 26.1263 3.6821 25.7664 3.90622 25.5654C4.14944 25.3671 4.28732 25.0977 4.56201 24.9406C4.72241 24.6684 5.05115 24.5277 5.20184 24.2333C5.35446 24.0091 5.5737 23.9991 5.78097 23.8624C5.97531 23.7487 6.06735 23.4819 6.28952 23.4073C6.46896 23.3301 6.68452 23.3495 6.8298 23.2255C6.93405 23.1345 6.99435 22.9748 7.12888 22.9355C7.28112 22.9122 7.4242 22.848 7.54288 22.7499C8.06029 22.9796 8.57588 22.4637 9.13276 22.4576C9.25912 22.4877 9.38837 22.5041 9.51825 22.5064C9.69157 22.5904 9.88544 22.6226 10.0766 22.5992C10.403 22.7313 10.4236 22.9257 10.872 22.9578C11.2324 23.1607 11.6838 23.0551 12.0144 23.3047C12.441 23.6087 12.836 23.9634 13.2421 24.2887C13.3351 24.3192 13.4587 24.2908 13.5251 24.3661C13.6798 24.8887 13.9359 25.0022 14.2267 25.5879C14.3764 25.7202 14.3767 25.9289 14.4381 26.1024C14.6594 26.3463 14.7373 26.6901 14.9573 26.9486C15.1226 27.4105 15.3369 27.8534 15.5963 28.2698C15.6276 28.4758 15.6773 28.6785 15.7448 28.8756C15.9268 29.0471 16.0609 29.2631 16.1337 29.5023C16.1632 29.523 16.1882 29.5495 16.207 29.5802C16.2258 29.611 16.238 29.6453 16.2429 29.681C16.2479 29.7167 16.2454 29.753 16.2356 29.7877C16.2258 29.8224 16.209 29.8547 16.1862 29.8826C16.1723 30.2504 16.4775 30.5588 16.6183 30.8848C16.7821 31.2465 16.8702 31.637 17.0078 32.0008C16.881 32.1653 16.7358 32.3148 16.5751 32.4464C16.4902 32.6867 16.3311 32.8938 16.1208 33.0377C15.8428 33.3004 15.6228 33.6185 15.4751 33.9713C15.1413 34.3427 14.9032 34.79 14.7815 35.2744C13.9789 36.6229 13.3955 38.0902 13.0528 39.6216C12.6962 40.9994 12.097 42.4447 12.3382 43.8885C12.3552 43.9705 12.3049 44.0518 12.2944 44.1359C12.2987 44.2346 12.3231 44.3313 12.3659 44.4203C12.4086 44.5093 12.469 44.5886 12.5434 44.6536C12.6097 44.6714 12.6788 44.6758 12.7468 44.6665C12.8148 44.6571 12.8802 44.6343 12.9392 44.5992C12.9982 44.5642 13.0496 44.5177 13.0904 44.4625C13.1311 44.4073 13.1604 44.3444 13.1765 44.2777C13.341 44.0813 13.4336 43.8346 13.4389 43.5785C13.5164 43.1692 13.6369 42.7692 13.7983 42.3852C13.7844 41.8981 14.2011 41.8085 14.195 41.2093C14.3149 40.9353 14.3505 40.6318 14.2973 40.3375C14.2946 39.9168 14.5622 39.5798 14.642 39.1723C14.7628 38.8755 14.8587 38.5691 14.9287 38.2563C14.9182 38.153 14.8403 38.0503 14.8813 37.9531C15.2958 37.5859 15.3063 37.1742 15.648 36.6842C15.7008 36.4329 15.9753 36.3249 16.0112 36.0785C16.241 35.5803 16.524 35.1085 16.8555 34.6713C17.0085 34.4749 17.018 34.1921 17.1731 33.9945C17.3042 33.828 17.5154 33.7275 17.5979 33.5345C17.7258 32.9622 17.7967 33.166 17.9902 32.6859C18.1353 32.6219 18.3217 32.6372 18.4096 32.4598C18.809 31.9099 19.1126 31.2757 19.7869 31.017C20.0965 30.659 20.4463 30.8672 20.8317 30.4811C21.2837 30.3576 21.4644 29.884 21.8976 29.7999C22.379 29.6578 22.9869 29.5144 23.4685 29.3729C23.5808 29.2532 23.6977 29.1112 23.8694 29.2396C24.4734 29.2356 25.0757 29.3032 25.6638 29.4411C25.9863 29.3791 26.2967 29.5825 26.6308 29.5331C26.904 29.5377 27.0556 29.6881 27.2981 29.7729C27.5185 29.849 27.771 29.8263 27.9934 29.9166C28.1828 29.9893 28.3047 30.1936 28.4995 30.2381C28.6379 30.2747 28.8022 30.2237 28.9353 30.2874C29.2035 30.5405 29.3886 30.321 29.4597 30.679C29.7805 31.0736 30.4019 31.0887 30.7595 31.4615L30.8347 31.3789L30.7563 31.465C30.933 31.6484 31.093 31.8471 31.2345 32.0587C31.4854 32.1777 31.5073 32.4353 31.5927 32.6612C31.8205 32.9189 32.0255 33.2044 32.2594 33.4596C32.471 33.6097 32.7227 33.7384 32.8256 33.9961C33.008 34.3853 33.361 34.8861 33.561 35.2769C33.6227 35.4755 33.8554 35.4783 33.9531 35.6158C33.9829 35.9863 34.0941 36.3456 34.2789 36.6682C34.3924 36.969 34.4756 37.2804 34.527 37.5977C34.7177 37.8839 34.7319 38.262 34.939 38.5512C35.0494 39.0486 35.2256 39.529 35.463 39.9797C35.4497 40.3539 35.5855 40.7181 35.8407 40.9921C35.8779 41.3803 36.1519 41.3509 35.9658 41.6754C35.9534 42.2115 36.4469 42.6462 36.52 43.1663L36.4441 43.183C36.6237 43.352 36.6379 43.2429 36.6853 43.5967C36.7 43.8531 36.8017 44.0968 36.9736 44.2877C37.0828 44.4475 37.085 44.584 37.3191 44.6433C37.5514 44.6735 37.6989 44.6761 37.7793 44.3994C37.9048 44.2255 37.8148 44.0445 37.7963 43.8672C37.8319 43.5525 37.6651 43.2215 37.6887 42.9095L37.262 43.0033L37.7659 42.8925C37.5635 42.5817 37.7066 42.1909 37.4883 41.8553C37.3647 41.7048 37.2668 41.535 37.1983 41.3528C37.1786 41.0443 37.075 40.7525 37.0577 40.4452C36.9152 40.2397 36.8479 39.9914 36.8671 39.742C36.8856 39.2484 36.5286 38.852 36.5093 38.371C36.3214 37.6796 35.8116 37.085 35.6828 36.3643C35.247 35.4825 34.9074 34.6218 34.3874 33.7486C33.9736 33.218 33.558 32.6997 33.1856 32.1304C33.2519 31.5253 33.7112 30.9881 33.7274 30.3733C33.697 30.1912 33.7 30.0051 33.7364 29.8241C33.945 29.4719 34.0945 29.0879 34.1788 28.6873C34.735 28.0713 34.6086 27.7359 35.0144 27.2674C35.3544 26.7429 35.4056 26.0862 35.9984 25.5683C36.6463 24.725 37.4146 23.9814 38.2786 23.3613C39.0264 22.923 39.8785 22.6943 40.7453 22.6994C40.8274 22.699 40.9099 22.6011 40.9951 22.6097C41.0752 22.6264 41.1582 22.5489 41.2373 22.5755C41.4533 22.6731 41.6937 22.7032 41.927 22.662C42.3095 22.4693 42.632 22.7284 42.9878 22.8403C43.1427 22.9352 43.3134 23.0013 43.4917 23.0355C43.7364 23.2791 44.007 23.4953 44.2986 23.6802C44.4533 23.7541 44.5827 23.8722 44.6704 24.0195C44.8722 24.2913 45.2235 24.4211 45.4495 24.6693C46.1754 25.5858 46.7571 26.6078 47.1746 27.6999C47.6369 28.6093 47.9942 29.5684 48.2395 30.5587C48.2353 30.8247 48.3029 31.0869 48.4351 31.3178L48.4976 31.3045C48.6146 31.5867 48.7159 31.8751 48.801 32.1684C48.8447 32.3314 48.8144 32.5171 48.984 32.635C49.1289 32.8536 49.2952 32.8195 49.4942 32.7342C49.7044 32.6118 49.6634 32.477 49.7176 32.2867C49.8183 32.0432 49.8261 31.7712 49.7395 31.5222V31.5222ZM11.2583 20.265C11.0342 20.4315 10.7567 20.5145 10.5358 20.6769C10.4573 20.8153 10.3827 20.9816 10.1984 20.8688C9.93282 20.7778 9.66207 20.9514 9.38472 20.8991C9.10716 20.8928 8.83441 20.8253 8.58592 20.7014C8.29835 20.7241 8.04285 20.5052 7.74971 20.4768C7.50679 20.4221 7.4106 20.2515 7.2336 20.1076C7.07833 19.9698 6.8359 19.9397 6.68746 19.7766C6.57885 19.4798 6.36079 19.2358 6.07802 19.0948C6.01806 18.9606 5.93104 18.8402 5.82242 18.7411C6.02503 18.2221 5.41203 17.8053 5.44576 17.2487H5.4504C5.51803 17.1209 5.47164 16.9741 5.49019 16.8764C5.57524 16.7135 5.62214 16.5334 5.62735 16.3497C5.82821 16.0576 5.96057 16.0375 6.05848 15.6327C6.21686 15.4348 6.31968 15.1983 6.35636 14.9475C6.6957 14.4912 7.15421 14.1372 7.68154 13.9244C7.86489 13.8829 7.88178 13.6699 8.0158 13.5959C8.06856 13.5771 8.1274 13.6117 8.18087 13.6286C8.44649 13.7196 8.71724 13.5459 8.99459 13.5982C9.27209 13.6045 9.54477 13.6721 9.79315 13.796C10.0811 13.7731 10.3361 13.9922 10.6296 14.0206C10.8725 14.0752 10.9685 14.2458 11.1455 14.3898C11.301 14.5276 11.5434 14.5577 11.6918 14.7208C11.8006 15.0174 12.0185 15.2613 12.301 15.4026C12.4205 15.7386 12.6645 15.6519 12.5017 15.9552C12.5224 16.4013 12.9596 16.7611 12.9335 17.2487H12.9289C12.8613 17.3765 12.9074 17.5233 12.8891 17.621C12.8041 17.7839 12.7572 17.964 12.752 18.1477C12.5529 18.438 12.4178 18.4608 12.3208 18.8647C12.1624 19.0626 12.0596 19.2991 12.0229 19.5499C11.8886 19.8931 11.5165 20.0289 11.2583 20.265ZM43.0083 20.265C42.7843 20.4316 42.5066 20.5145 42.2861 20.6769C42.2074 20.8152 42.1328 20.9817 41.9487 20.8688C41.6831 20.7778 41.4121 20.9514 41.135 20.8991C40.8574 20.8928 40.5846 20.8253 40.3362 20.7014C40.0482 20.724 39.7929 20.5052 39.4997 20.4768C39.257 20.4221 39.1608 20.2515 38.9838 20.1076C38.8283 19.9698 38.5858 19.9397 38.4375 19.7766C38.3288 19.4799 38.1109 19.236 37.8283 19.0948C37.7683 18.9606 37.6813 18.8402 37.5727 18.7411C37.7748 18.2223 37.1625 17.8054 37.1958 17.2487H37.2006C37.2683 17.1209 37.2219 16.9741 37.2402 16.8764C37.3253 16.7135 37.3723 16.5334 37.3773 16.3497C37.5772 16.0605 37.7127 16.0321 37.8087 15.6327C37.9671 15.4348 38.0698 15.1983 38.1064 14.9475C38.4458 14.4913 38.9043 14.1373 39.4315 13.9244C39.6149 13.8829 39.632 13.6699 39.7658 13.5959C39.8188 13.5771 39.8776 13.6117 39.9309 13.6286C40.1965 13.7196 40.4672 13.5459 40.7446 13.5982C41.0222 13.6046 41.2949 13.6721 41.5434 13.796C41.8311 13.7731 42.0864 13.9922 42.3796 14.0206C42.6225 14.0752 42.7187 14.2458 42.8957 14.3898C43.051 14.5276 43.2934 14.5577 43.4421 14.7208C43.5507 15.0175 43.7687 15.2614 44.0513 15.4026C44.1708 15.7385 44.4141 15.6517 44.2519 15.9552C44.2725 16.4013 44.7095 16.7612 44.6838 17.2487H44.6789C44.6113 17.3765 44.6577 17.5233 44.6394 17.621C44.5543 17.7839 44.5074 17.964 44.502 18.1477C44.3028 18.4379 44.168 18.4609 44.0708 18.8647C43.9126 19.0627 43.8098 19.2991 43.7729 19.5499C43.6384 19.8931 43.2667 20.0289 43.0083 20.265Z" fill="black"/>
<path d="M21.8805 21.0076C21.9434 21.0955 21.9992 21.1883 22.0474 21.285C22.0751 21.463 22.0984 21.4604 22.2325 21.5666C22.2918 21.8215 22.2227 21.9077 22.5062 22.0555C22.5549 22.1311 22.6241 22.1912 22.7057 22.229C22.7873 22.2667 22.878 22.2805 22.9671 22.2686C23.25 22.3489 23.5112 22.6739 23.9608 22.79C24.0838 22.8693 24.1917 22.6841 24.2808 22.6948C24.4538 22.9734 24.5986 22.8977 24.8726 22.965C24.9415 23.0034 25.0191 23.0237 25.0979 23.024C25.2274 22.9821 25.3515 23.0813 25.4742 23.0971C25.6721 23.005 25.9324 23.0764 26.1116 22.9122C26.264 22.8088 26.4034 22.8437 26.573 22.7909C26.7249 22.7381 26.7871 22.5498 26.9163 22.4799C27.0291 22.4236 27.1922 22.4399 27.2679 22.3328C27.3169 22.2529 27.3033 22.1219 27.3609 22.0578C27.5919 21.9426 27.3786 21.759 27.6814 21.8425C27.8465 21.7954 27.8949 21.6236 27.9363 21.4772C27.9668 21.3697 28.0111 21.2701 28.0512 21.1664C28.079 21.0945 28.0838 20.9857 28.1174 20.9219C28.1579 20.8452 28.2354 20.8228 28.2658 20.7356C28.2795 20.6445 28.2741 20.5516 28.25 20.4626C28.2977 20.1603 27.7667 19.8211 27.4919 19.9906C27.4738 20.0405 27.4702 20.0957 27.3967 20.0902C27.318 20.1872 27.2614 20.3064 27.1375 20.3632L27.0745 20.3155C27.0725 20.5635 26.8735 20.398 26.8225 20.6715C26.8139 20.7623 26.844 20.8924 26.7788 20.9435C26.6918 20.9794 26.6103 21.0274 26.5368 21.0862C26.3975 21.0767 26.4184 21.1811 26.3601 21.2558C26.2213 21.2824 26.0087 21.2392 25.9106 21.3725C25.8626 21.4505 25.7924 21.4461 25.7128 21.4202C25.5536 21.3758 25.5141 21.5957 25.3784 21.6079C25.138 21.6505 25.0854 21.5257 24.9316 21.5937C24.6628 21.5226 24.4061 21.4117 24.1701 21.2647C24.1037 21.2013 23.9846 21.2365 23.8886 21.2097C23.6433 21.0327 23.4223 20.7789 23.1786 20.5836C23.1152 20.4443 23.1215 20.3679 22.959 20.3364L22.9075 20.3743C22.6385 20.2706 22.6878 20.1346 22.5711 20.1226C22.4895 20.0405 22.5687 19.984 22.3642 19.9882C22.1054 19.9305 21.7134 20.2343 21.7502 20.4753C21.7693 20.6002 21.6982 20.6842 21.7606 20.809C21.7965 20.8776 21.8366 20.9439 21.8805 21.0076V21.0076Z" fill="black"/>
<path d="M24.2533 6.69342C24.2344 6.98426 24.2437 7.27627 24.2812 7.56531C24.2414 7.7174 24.1942 7.85205 24.3 7.97638H24.3642C24.5025 8.21686 24.4215 8.37517 24.5026 8.44893C24.5234 8.57151 24.4439 8.60387 24.6128 8.70404C24.6717 8.74705 24.7386 8.77798 24.8095 8.79506C24.8804 8.81215 24.9541 8.81504 25.0261 8.80358C25.0982 8.79211 25.1672 8.76652 25.2294 8.72826C25.2915 8.69001 25.3455 8.63985 25.3881 8.58068C25.485 8.45588 25.5567 8.39413 25.5518 8.23476C25.5485 8.07508 25.5651 7.91562 25.601 7.76001C25.6895 7.61101 25.671 7.60157 25.6413 7.44232C25.7637 7.22321 25.8778 7.24777 25.7936 6.9461C25.8164 6.8677 25.8168 6.78447 25.7946 6.70589C25.7724 6.62731 25.7286 6.55654 25.6681 6.50166C25.5706 6.27101 25.7079 5.82597 25.6661 5.5019C25.702 5.37277 25.4909 5.33515 25.4821 5.25306C25.7209 5.03285 25.6074 4.95785 25.6584 4.69615C25.7598 4.47683 25.6476 4.43902 25.8106 4.20748C25.745 4.04134 25.8739 3.85204 25.7827 3.67371C25.7327 3.52631 25.8288 3.42701 25.8547 3.28351C25.8782 3.15277 25.7468 3.02533 25.7617 2.89429C25.7742 2.78376 25.8904 2.67603 25.8484 2.56751C25.8184 2.48957 25.7092 2.42273 25.6975 2.34345C25.7288 2.16401 25.6799 2.21232 25.6345 2.08766C25.6441 2.04828 25.7202 2.02405 25.7608 1.99042C25.9473 1.68122 25.4383 1.28981 25.5037 0.954208C25.586 0.813498 25.4394 0.696208 25.3514 0.582268C25.3004 0.510894 25.233 0.452874 25.1548 0.413139C25.0767 0.373403 24.9901 0.353127 24.9024 0.354033C24.8147 0.354939 24.7285 0.377001 24.6512 0.418343C24.5739 0.459686 24.5077 0.519087 24.4582 0.591498C24.4678 0.649868 24.4988 0.705498 24.4333 0.748498C24.4077 0.902387 24.3901 1.0575 24.3806 1.21321C24.3347 1.37297 24.2381 1.54956 24.3323 1.71179C24.3843 1.80138 24.4997 1.89024 24.4868 1.98673C24.4253 2.13373 24.4468 2.29353 24.3754 2.43527C24.4297 2.59164 24.4836 2.64072 24.3514 2.79263C24.186 3.02206 24.3957 3.2698 24.2475 3.48405C24.1669 3.64578 24.2711 3.81014 24.3256 3.96439C24.3298 4.15878 24.3072 4.35282 24.2585 4.54105C24.2811 4.98798 24.2046 5.48212 24.1797 5.95005C24.1838 6.1955 24.3563 6.42807 24.2533 6.69342Z" fill="black"/>
<path d="M30.0127 9.17815C30.1588 9.30249 30.4464 9.45007 30.5803 9.38115C30.6953 9.36368 30.8648 9.38607 30.8591 9.25115C30.9081 9.11463 30.9867 9.20245 31.0603 9.18888L30.9885 9.13804C31.0686 9.12904 31.0603 9.04825 31.0954 9.02317C31.2441 8.97517 31.2064 8.99044 31.2604 8.86012C31.3046 8.81974 31.4292 8.84885 31.4921 8.82328C31.562 8.79496 31.5539 8.70928 31.5908 8.65728C31.6301 8.60217 31.7019 8.56982 31.7038 8.48919C31.5973 8.14745 31.7888 8.20114 31.9252 7.95586C31.9803 7.85113 32.1099 7.77564 32.1069 7.65229C32.089 7.59729 32.0148 7.51367 32.0402 7.48449C32.3407 7.48649 32.2446 7.40396 32.4154 7.25979C32.4689 7.23242 32.5136 7.22466 32.5375 7.17584C32.5562 7.08868 32.6831 7.09473 32.7426 7.0613C32.7546 6.93025 32.9412 6.89047 32.9415 6.73209C32.9621 6.61688 33.082 6.61425 33.1625 6.54504C33.236 6.48199 33.1818 6.33123 33.2485 6.26304C33.3046 6.20549 33.444 6.20952 33.455 6.12157C33.4628 6.05846 33.4015 5.95622 33.425 5.903C33.5348 5.80435 33.458 5.80979 33.4799 5.71659C33.5041 5.69902 33.5764 5.72887 33.6236 5.73259C33.7646 5.69759 33.742 5.53033 33.7477 5.41975C33.7566 5.27052 33.7898 5.12374 33.846 4.9852C33.8723 4.93753 33.8884 4.88492 33.8933 4.83069C33.8982 4.77647 33.8918 4.72182 33.8745 4.6702C33.8819 4.41911 33.4065 4.05165 33.1421 4.15908C33.126 4.20246 33.1233 4.24953 33.0564 4.23677C33.0579 4.23707 32.8597 4.43966 32.8342 4.45577C32.7451 4.51191 32.6289 4.53592 32.5849 4.66111C32.5649 4.71836 32.6444 4.97069 32.5854 4.99379C32.4995 5.02745 32.4603 5.09479 32.396 5.15134C32.2652 5.17095 32.3128 5.25601 32.2851 5.34005C32.1637 5.39696 31.9537 5.42422 31.9228 5.59226C31.9129 5.68249 31.8496 5.71176 31.768 5.73333C31.6339 5.78242 31.6519 5.94166 31.6323 6.06019C31.5538 6.17762 31.4538 6.27915 31.3376 6.35945C31.2516 6.57018 31.0128 6.71165 30.8818 6.91974C30.8265 7.00086 30.7615 7.07482 30.688 7.13993C30.5791 7.29168 30.6564 7.49413 30.4392 7.61835C30.3029 7.77818 30.1886 7.95553 30.0994 8.14568C29.9648 8.24748 29.9614 8.25836 29.9582 8.41143C29.9734 8.52843 29.9532 8.6473 29.9004 8.75277C29.9347 8.81177 29.8907 8.82967 29.8555 8.85928C29.8669 8.98127 29.9229 9.09477 30.0127 9.17815V9.17815Z" fill="black"/>
<path d="M16.0367 4.87189C16.0764 4.96829 16.1319 5.05957 16.169 5.15647C16.2 5.23726 16.1851 5.32515 16.2114 5.39839C16.2793 5.58691 16.521 5.47348 16.5822 5.60602C16.5958 5.68781 16.625 5.76622 16.6682 5.83702C16.6432 5.96702 16.7395 5.95002 16.8095 6.00413C16.8229 6.13751 16.779 6.34471 16.9274 6.42949C17.0092 6.46884 17.0159 6.5382 17.0092 6.62232C17.011 6.7652 17.1675 6.80083 17.2726 6.85875C17.3575 6.9716 17.4202 7.09952 17.4574 7.23575C17.6277 7.38675 17.6823 7.65875 17.8351 7.85148C17.8935 7.93051 17.9417 8.01647 17.9789 8.1074C18.086 8.26026 18.3026 8.25479 18.3478 8.50072C18.4506 8.71769 18.6083 8.90411 18.8051 9.0416C18.9421 9.16566 19.0872 9.28033 19.2396 9.38483C19.3072 9.37167 19.3087 9.41954 19.3253 9.46251C19.5898 9.56995 20.0652 9.20251 20.0578 8.95145C20.0797 8.83699 20.1563 8.6848 20.0275 8.64536C19.9564 8.62359 19.9298 8.32858 19.8914 8.25747C19.8697 8.2173 19.8064 8.17332 19.7912 8.13685C19.7682 8.08143 19.8368 7.97402 19.8334 7.90629C19.8297 7.83109 19.7463 7.81029 19.7094 7.75822C19.6706 7.70292 19.6638 7.62443 19.5883 7.5958C19.2307 7.58299 19.3446 7.42019 19.1584 7.21022C19.0778 7.12369 19.0497 6.97622 18.9323 6.93822C18.8745 6.93697 18.7709 6.97922 18.7519 6.94557C18.8531 6.66266 18.7437 6.72626 18.6642 6.51711C18.656 6.4576 18.6635 6.41274 18.6254 6.37404C18.5492 6.32752 18.5971 6.20998 18.5852 6.14259C18.4655 6.08826 18.49 5.89843 18.3405 5.84586C18.2387 5.78822 18.2758 5.67439 18.2373 5.57533C18.2021 5.48506 18.0419 5.48628 17.9995 5.4009C17.9638 5.3289 18.0139 5.19856 17.9345 5.1592C17.8776 5.13088 17.7607 5.15474 17.7185 5.11501C17.6601 4.97711 17.6417 5.05366 17.5607 5.00144C17.5519 4.97286 17.6042 4.91457 17.6232 4.87144C17.6385 4.71163 17.4171 4.66394 17.3023 4.62675C17.0976 4.56041 17.1053 4.50034 16.9719 4.35698C16.9012 4.28103 16.8011 4.29729 16.7041 4.28258C16.5656 4.27017 16.4266 4.29932 16.3049 4.36631C16.1831 4.43329 16.0841 4.53507 16.0205 4.65863C15.9239 4.83101 15.997 4.77507 16.0367 4.87189Z" fill="black"/>
</svg>
