<svg width="50" height="50" viewBox="0 0 50 50" fill="none" xmlns="http://www.w3.org/2000/svg">
<path d="M39.7278 1.91309H10.7645C9.20536 1.91309 7.94141 3.17704 7.94141 4.73622V45.0638C7.94141 46.623 9.20536 47.8869 10.7645 47.8869H39.7278C41.287 47.8869 42.5509 46.623 42.5509 45.0638V4.73622C42.5509 3.17704 41.287 1.91309 39.7278 1.91309Z" fill="white"/>
<path d="M26.8442 43.5355C22.8107 43.8625 18.6237 43.3097 15.3795 41.0051C14.7187 40.5354 14.1073 39.9999 13.5546 39.4068C12.842 38.6385 12.2184 37.7921 11.6957 36.8839C9.81948 33.6269 8.63436 30.0183 8.21419 26.2832C8.08111 25.1 8.1606 23.9021 8.04822 22.7295C7.97505 21.9659 7.84836 21.2032 7.81651 20.4256C7.74494 18.6773 7.73575 16.9271 7.75455 15.1777C7.79183 11.7115 7.94096 8.24714 7.94096 4.78044C7.93833 4.0226 8.23686 3.29475 8.77088 2.75702C9.30489 2.21929 10.0306 1.91572 10.7885 1.91309H39.7029C40.4608 1.91573 41.1865 2.2193 41.7205 2.75701C42.2545 3.29473 42.5531 4.02256 42.5504 4.78038V20.9068C42.6312 24.0326 42.5431 27.1605 42.2866 30.2768C41.8462 34.0954 40.0199 37.6197 37.154 40.1815C35.6692 41.3741 33.9342 42.2157 32.0784 42.6435C30.3618 43.0873 28.6109 43.3857 26.8442 43.5355V43.5355Z" fill="#82CFD0"/>
<path d="M36.3401 15.9249C36.0883 15.9249 35.8366 15.9249 35.5848 15.9249H18.8498C17.5481 15.9678 16.2465 15.8365 14.9796 15.5346C14.9035 15.5265 14.83 15.5021 14.7642 15.4631C14.6983 15.4241 14.6416 15.3714 14.5979 15.3086C14.5577 15.1918 14.5616 15.0644 14.6089 14.9504C15.3584 12.9775 16.8414 11.3705 18.748 10.4654C21.2151 9.05244 23.9913 8.26649 26.833 8.17651H36.3401C36.397 8.17651 36.4516 8.19913 36.4918 8.23938C36.5321 8.27963 36.5547 8.33422 36.5547 8.39114V15.7103C36.5547 15.7672 36.5321 15.8218 36.4918 15.8621C36.4516 15.9023 36.397 15.9249 36.3401 15.9249V15.9249Z" fill="white"/>
<path d="M43.4294 26.1665C43.4848 25.6183 43.4613 25.0649 43.3598 24.5234C43.4413 23.2793 43.4109 22.0305 43.2688 20.7919C43.4968 20.0313 42.986 19.571 43.1971 18.7062C43.2543 18.4974 43.2472 18.2761 43.1767 18.0713C43.3085 17.4785 43.3795 16.8737 43.3888 16.2665C43.2923 13.6318 43.4903 10.9714 43.3785 8.3168C43.2709 7.82748 43.5056 7.32496 43.3316 6.86579C43.1869 6.51316 43.4391 6.15124 43.2964 5.76464C43.0111 5.25189 43.2293 4.7126 43.1949 4.13429C43.0602 3.85087 42.9739 3.54693 42.9395 3.23504C42.8266 2.58395 42.2638 2.2444 41.8571 1.76065C40.2615 0.724604 38.1389 1.22515 36.3195 1C34.8366 1.24203 33.2526 0.89651 31.7949 1.19433C31.0875 0.928616 30.7583 1.45079 30.1419 1.28828C29.6365 1.19388 29.0964 1.34702 28.7162 1.18781C28.2442 1.00788 27.7369 1.23582 27.2695 1.07431C25.833 1.13736 24.3941 1.12379 22.9591 1.03365C22.4107 0.978343 21.8573 1.00182 21.3157 1.10337C20.0717 1.02129 18.8229 1.05173 17.5844 1.1943C17.0614 1.00535 16.681 1.24559 16.1921 1.33551C15.7563 1.23623 15.3058 1.21957 14.8639 1.2864C14.3819 1.12412 13.8689 1.07581 13.3651 1.14527C12.4776 0.893607 11.8547 1.32024 10.8471 1.0862C7.53466 1.18932 6.84674 3.67751 7.1381 6.54797C7.06524 6.93021 7.09398 7.32488 7.22145 7.69254C7.02645 8.22308 7.27739 8.5914 7.36266 9.08466C7.29418 9.39662 7.3208 9.71512 7.24104 10.0233C7.32855 10.2668 7.31917 10.5345 7.21484 10.7712C7.03511 11.2442 7.26286 11.7501 7.10144 12.218C7.20621 13.8167 7.09573 15.7004 7.02737 17.3783C7.26971 18.8609 6.92389 20.4376 7.22123 21.903C6.95526 22.6086 7.47878 22.9427 7.31543 23.5559C7.22158 24.0547 7.37327 24.6098 7.21495 24.9816C7.12833 25.3557 7.11386 25.7428 7.17232 26.1223C7.05733 26.4726 7.04586 26.8486 7.13928 27.2053C7.3002 28.9154 6.84244 30.6775 7.13042 32.3822C7.07765 33.5308 7.08706 34.6815 7.15861 35.8291C7.303 36.1826 7.05125 36.5435 7.19387 36.9302C7.55426 37.5272 7.12522 38.21 7.31352 38.8339C6.89872 40.4686 7.27801 41.9359 7.11474 43.67C6.94721 44.385 6.96337 45.1308 7.16171 45.8379C7.36005 46.545 7.73412 47.1904 8.24908 47.714C8.686 48.1316 9.22122 48.4323 9.80521 48.5882C10.3892 48.7441 11.0031 48.7502 11.59 48.6058C12.119 48.7989 12.4899 48.5514 12.9825 48.4647C13.4182 48.564 13.8687 48.5807 14.3106 48.5138C15.1121 48.8108 15.4257 48.5719 16.1155 48.7258C16.514 48.8418 16.9033 48.6224 17.3006 48.6435C20.1315 48.8201 22.9712 48.8075 25.8005 48.6059C26.3272 48.7967 26.7018 48.5532 27.1928 48.4647C27.6286 48.564 28.0791 48.5807 28.521 48.5138C29.3059 48.8077 29.6634 48.5738 30.3261 48.7258C32.0347 48.6236 33.7523 48.7297 35.4865 48.8C37.2021 48.5149 39.5207 49.0374 41.0843 48.3648C41.5266 47.9051 42.098 47.6416 42.5404 47.1779C42.6543 46.8857 42.817 46.615 43.0217 46.3773C43.2772 45.9641 43.3819 45.4752 43.3178 44.9936C43.4328 44.6433 43.4443 44.2673 43.3509 43.9106C43.2979 40.9532 43.6039 37.9242 43.2686 35.0025C43.5308 34.3859 43.021 33.9332 43.1748 33.3495C43.2707 32.8358 43.1148 32.3085 43.2752 31.9238C43.4548 31.4506 43.2275 30.9449 43.3887 30.4768C43.3258 29.0403 43.3393 27.6015 43.4294 26.1665V26.1665ZM41.8491 13.73C41.7098 14.4342 41.6643 15.1537 41.7138 15.8698C41.729 16.1443 41.7024 16.4196 41.6349 16.6861C41.6094 16.9597 41.7527 17.2265 41.7364 17.5006C41.6643 17.6864 41.6331 17.8856 41.6453 18.0846C41.6574 18.2836 41.7124 18.4775 41.8066 18.6532C41.7255 19.0806 42.032 19.0994 41.7375 19.392C41.5727 19.9421 41.9825 20.5231 41.9395 21.0762H41.9344C41.8725 21.4453 41.8502 21.82 41.8678 22.1939C41.6038 22.8216 41.5933 23.5271 41.8384 24.1623C42.0147 25.0055 41.578 26.0116 42.0415 26.775C41.7016 27.4363 41.9465 28.2718 41.683 28.9632C41.7382 29.6075 41.722 30.256 41.6349 30.8968C41.6093 31.1701 41.7527 31.4368 41.7364 31.711C41.6643 31.8969 41.6333 32.0961 41.6454 32.2951C41.6575 32.4941 41.7125 32.6881 41.8066 32.8639C41.7258 33.2921 42.0319 33.3103 41.7375 33.6024C41.5727 34.1525 41.9825 34.7337 41.9395 35.2869H41.9344C41.8612 35.5758 41.9619 35.5414 41.8354 36.1216C41.935 36.4075 41.7821 36.6286 41.6846 36.8822C41.6842 37.5485 41.7491 38.2133 41.8783 38.8669C41.8098 39.3279 41.8605 39.991 41.8405 40.465C41.7899 40.6871 42.0162 40.8071 42.0415 40.9856C41.8801 41.3516 41.8139 41.7525 41.8492 42.151C41.7098 42.8551 41.6642 43.5745 41.7137 44.2905C41.7309 44.5607 41.7035 44.8319 41.6327 45.0933C41.6058 45.2728 41.7132 45.4761 41.6447 45.6656C41.5733 45.8198 41.4049 45.908 41.3613 46.0564C41.3738 46.1582 41.3593 46.2614 41.3193 46.3558C41.2793 46.4501 41.2152 46.5323 41.1334 46.5941C41.0985 46.7714 41.0248 46.78 40.8558 46.7273C40.4613 46.8026 40.2123 47.3052 39.7267 47.2765V47.2715C39.3576 47.2097 38.983 47.1874 38.6092 47.2049C37.9816 46.941 37.276 46.9304 36.6408 47.1756C35.7974 47.3519 34.7913 46.9152 34.0279 47.3787C33.3668 47.0387 32.5311 47.2836 31.8399 47.0202C31.1956 47.0753 30.5471 47.0592 29.9063 46.9721C29.633 46.9465 29.3663 47.0898 29.0918 47.0736C28.906 47.0015 28.7068 46.9705 28.5079 46.9826C28.3089 46.9947 28.1149 47.0497 27.9392 47.1437C27.511 47.063 27.4929 47.369 27.2004 47.0747C26.6507 46.9103 26.0692 47.3196 25.5163 47.2766V47.2715C25.1471 47.2097 24.7724 47.1873 24.3986 47.2049C23.771 46.9409 23.0655 46.9304 22.4304 47.1756C21.5867 47.3519 20.5811 46.9152 19.8174 47.3787C19.1561 47.0386 18.3208 47.2837 17.6295 47.0202C16.9852 47.0753 16.3367 47.0592 15.6959 46.9721C15.4226 46.9465 15.1556 47.0898 14.8814 47.0736C14.6956 47.0015 14.4964 46.9704 14.2974 46.9826C14.0985 46.9947 13.9045 47.0497 13.7288 47.1437C13.3006 47.063 13.2825 47.369 12.99 47.0747C12.4403 46.9102 11.8588 47.3196 11.3058 47.2766V47.2715C10.9264 47.1792 11.0768 47.3336 10.5444 47.1611C10.3063 47.2254 10.1778 47.044 10.0507 46.8854C9.80238 46.7859 9.57247 46.6456 9.37049 46.4702C9.17181 46.4035 8.92422 46.3224 8.86929 46.0842C8.7093 45.6971 8.63442 45.2801 8.64976 44.8616C8.70052 44.6391 8.47406 44.5197 8.4488 44.3407C8.6101 43.9746 8.67626 43.5737 8.64113 43.1753C8.7805 42.4712 8.82604 41.7518 8.77659 41.0358C8.76144 40.7612 8.78803 40.4858 8.85546 40.2192C8.88104 39.9458 8.73769 39.6791 8.75396 39.4047C8.76755 39.1734 8.89437 38.948 8.84855 38.721C8.72302 38.4761 8.66546 38.202 8.68185 37.9273C8.65765 37.896 8.64022 37.8601 8.63065 37.8218C8.62109 37.7835 8.6196 37.7435 8.62629 37.7046C8.63298 37.6657 8.64769 37.6286 8.66949 37.5956C8.6913 37.5627 8.71972 37.5346 8.75295 37.5133C8.91713 36.9635 8.50789 36.382 8.55067 35.8291H8.55601C8.61784 35.46 8.64015 35.0854 8.62258 34.7117C8.88649 34.084 8.89701 33.3785 8.65192 32.7432C8.47552 31.8996 8.91216 30.8939 8.44883 30.1303C8.78871 29.469 8.54386 28.6336 8.80734 27.9423C8.75218 27.298 8.76831 26.6495 8.85543 26.0088C8.88104 25.7354 8.73769 25.4684 8.75394 25.1943C8.82599 25.0084 8.85703 24.8092 8.84492 24.6103C8.8328 24.4113 8.77783 24.2174 8.68377 24.0417C8.76431 23.6141 8.45855 23.5952 8.75286 23.3028C8.91717 22.7532 8.50789 22.1716 8.55065 21.6187H8.55599C8.61779 21.2495 8.64011 20.8748 8.62256 20.501C8.88648 19.8733 8.897 19.1678 8.6519 18.5325C8.47547 17.6894 8.91216 16.6832 8.44881 15.9199C8.78869 15.2585 8.54382 14.4233 8.80732 13.7319C8.75214 13.0876 8.76827 12.4392 8.85541 11.7984C8.88102 11.5247 8.73767 11.258 8.75392 10.9839C8.82599 10.7981 8.85703 10.5988 8.84492 10.3999C8.83281 10.201 8.77783 10.007 8.68375 9.83128C8.76424 9.40325 8.45854 9.38487 8.75284 9.09246C8.91709 8.5425 8.5079 7.96137 8.55063 7.4083H8.55596C8.61784 7.03916 8.64015 6.66447 8.62253 6.2906C8.86699 5.69683 8.88659 5.03432 8.67768 4.42714C8.70268 4.16495 8.78265 3.91097 8.91238 3.68175C9.0421 3.45254 9.21866 3.25323 9.43056 3.09681C9.59849 3.0263 9.54032 2.79256 9.65736 2.70276C10.2609 2.76095 10.5839 2.47824 11.5451 2.78016C12.1894 2.72498 12.8378 2.7411 13.4786 2.82824C13.752 2.85385 14.019 2.71051 14.2931 2.72675C14.4789 2.79901 14.6781 2.83015 14.8771 2.81804C15.0761 2.80592 15.2701 2.75084 15.4457 2.65658C15.8739 2.73761 15.8916 2.4311 16.1846 2.72567C16.7343 2.8901 17.3158 2.48075 17.8687 2.52372V2.52878C18.2379 2.5906 18.6125 2.61292 18.9864 2.59536C19.6141 2.85934 20.3196 2.86986 20.9549 2.6247C21.798 2.44834 22.8041 2.88508 23.5675 2.42161C24.2289 2.7617 25.064 2.51655 25.7555 2.78012C26.3998 2.72496 27.0482 2.74109 27.689 2.8282C27.9626 2.8538 28.2294 2.71047 28.5035 2.72671C28.6893 2.79879 28.8885 2.82985 29.0875 2.81773C29.2864 2.80562 29.4804 2.75063 29.6561 2.65654C30.0848 2.73729 30.1025 2.43126 30.3949 2.72563C30.9448 2.89002 31.5261 2.48073 32.0791 2.52368V2.52874C32.3704 2.60199 32.3333 2.50108 32.9141 2.62766C33.1995 2.52803 33.4214 2.68094 33.6745 2.77845C34.3409 2.77888 35.0058 2.71401 35.6595 2.58475C36.1211 2.65229 36.7828 2.60308 37.2574 2.62249C37.4792 2.67337 37.5997 2.44678 37.7779 2.42153C38.144 2.58288 38.5449 2.64904 38.9433 2.61386C39.209 2.71287 39.5197 2.61131 39.7655 2.72768C39.7957 2.75616 39.8334 2.7754 39.8741 2.7831C39.9149 2.79079 39.957 2.78664 39.9955 2.77111C40.3894 2.90697 40.8623 2.95703 41.0535 3.36744C41.1603 3.5129 41.394 3.56725 41.4777 3.75242C41.5464 3.90802 41.4891 4.09372 41.5701 4.22535C41.6549 4.28592 41.7218 4.36827 41.7638 4.4637C41.8057 4.55914 41.821 4.66412 41.8083 4.76756C41.9103 4.94476 41.8805 5.04078 41.7374 5.18158C41.5726 5.73132 41.9825 6.31278 41.9394 6.86574H41.9344C41.8725 7.23491 41.8502 7.60963 41.8678 7.98354C41.6038 8.6112 41.5933 9.31673 41.8384 9.95198C42.0148 10.7953 41.5779 11.8007 42.0415 12.5646C41.8802 12.9307 41.814 13.3315 41.8491 13.73H41.8491Z" fill="black"/>
<path d="M22.4263 16.6713C22.9423 16.48 23.5068 16.4634 24.0332 16.6241C24.599 16.4395 25.1383 16.8353 25.7301 16.7149C27.7198 16.7358 29.7987 16.7205 31.8395 16.8375C32.824 16.7538 33.8125 16.7256 34.8002 16.7531C35.3259 16.7251 35.853 16.7357 36.3772 16.7848C36.6461 16.7139 36.8851 16.5583 37.0588 16.3411C37.2325 16.1239 37.3317 15.8566 37.3418 15.5787C37.4157 14.9949 37.1856 14.7423 37.1306 14.2664C37.2296 13.8031 37.2463 13.3258 37.1797 12.8567C37.312 12.2265 37.383 11.5849 37.3917 10.941C37.488 10.3424 37.2198 9.73825 37.3266 9.13243C37.3201 8.8652 37.3734 8.46102 37.3476 8.15994C37.2854 7.93768 37.1554 7.74039 36.9757 7.59564C36.7959 7.4509 36.5754 7.36593 36.345 7.35261C35.2011 7.25086 34.0502 7.25539 32.9071 7.36614C32.1601 7.38055 29.663 7.26536 29.2487 7.39469C28.8698 7.53747 28.4911 7.2882 28.0799 7.42962C27.5639 7.62116 26.9993 7.63774 26.473 7.47679C25.907 7.66144 25.3681 7.26576 24.7761 7.38594C24.1363 7.42701 23.7848 7.19045 23.0767 7.42281C20.0502 7.21109 17.1882 7.40844 14.1287 7.31625C13.3089 7.45632 13.0125 8.53047 13.2069 9.22354C13.3983 9.7396 13.4149 10.3043 13.254 10.8307C13.4381 11.3969 13.0431 11.9354 13.1632 12.5276C13.2336 13.0165 12.9681 13.4921 13.1523 13.9845C13.1955 14.6359 13.1976 15.2894 13.1586 15.941C13.3331 16.8307 14.4873 16.7723 15.175 16.7922C15.9828 16.8567 16.7952 16.8375 17.599 16.7347C18.3476 16.7208 20.8473 16.8354 21.2575 16.7063C21.6364 16.5636 22.0149 16.8126 22.4263 16.6713ZM21.2575 15.3143V15.309C20.6841 15.3058 20.1141 15.2217 19.5643 15.0593C19.0319 15.0013 18.4934 15.0536 17.9822 15.213C17.5235 15.253 17.0622 15.2557 16.6031 15.2211C16.2395 15.1993 15.8747 15.2092 15.5128 15.2508C15.4066 15.3015 15.3282 15.4203 15.2091 15.4163C15.1004 15.4045 14.8049 15.2082 14.7812 15.2378C14.5791 15.2752 14.707 15.1461 14.7098 15.0798C14.6971 15.0335 14.8398 14.8695 14.8201 14.7665C14.7491 14.3797 14.8891 13.9745 14.7897 13.5811C14.7743 13.2899 14.8008 12.9981 14.8683 12.7144C14.8939 12.4242 14.7505 12.141 14.7668 11.8501C14.8383 11.6519 14.8689 11.4414 14.8568 11.2312C14.8448 11.0209 14.7903 10.8152 14.6966 10.6266C14.7167 10.4344 14.6932 10.2401 14.6279 10.0583C14.7037 9.88895 14.8624 9.75521 14.8059 9.53417C14.7857 9.37418 14.7884 9.119 14.6674 9.02742C14.6181 8.96958 14.5212 8.79083 14.6348 8.78683C14.7254 8.85927 14.7554 8.79936 14.8027 8.81454C14.8353 8.84607 14.8749 8.86942 14.9183 8.88267C14.9616 8.89591 15.0075 8.89867 15.0521 8.89073C15.3306 8.84083 15.6177 8.89449 15.8594 9.0416C16.5661 9.04265 17.2714 8.97782 17.9661 8.84796C18.4557 8.91635 19.159 8.86563 19.662 8.88543C19.8943 8.93713 20.0246 8.71125 20.2146 8.68474C20.9207 9.0251 21.8005 8.77916 22.5369 9.04326C23.2208 8.99228 23.9082 9.00829 24.589 9.09106C24.8794 9.11695 25.1626 8.9736 25.4536 8.98957C25.6517 9.06095 25.8622 9.09155 26.0725 9.07953C26.2827 9.06752 26.4884 9.01314 26.6771 8.91966C27.1203 9.00042 27.1544 8.69571 27.4612 8.98876C28.0452 9.15301 28.6616 8.74373 29.2487 8.78655V8.79188C29.822 8.79533 30.392 8.87939 30.9419 9.04158C31.4743 9.09955 32.0128 9.04722 32.524 8.88784C32.9827 8.84793 33.4439 8.84522 33.9031 8.87974C34.2667 8.90157 34.6315 8.89162 34.9933 8.85C35.0996 8.79934 35.178 8.68051 35.2971 8.68477C35.4057 8.69633 35.7013 8.89258 35.725 8.863C35.9273 8.82553 35.7988 8.95519 35.7964 9.02124C35.8086 9.06721 35.6666 9.23187 35.6861 9.3343C35.7572 9.72113 35.617 10.1261 35.7165 10.5197C35.7318 10.8109 35.7053 11.1027 35.6379 11.3864C35.6123 11.6768 35.7557 11.9598 35.7394 12.251C35.6679 12.4491 35.6373 12.6595 35.6494 12.8698C35.6614 13.08 35.7159 13.2856 35.8096 13.4742C35.7895 13.6664 35.813 13.8606 35.8783 14.0425C35.8024 14.2118 35.6437 14.3456 35.7003 14.5666C35.7204 14.7268 35.7179 14.9815 35.8385 15.0734C35.8881 15.1314 35.9847 15.3102 35.8711 15.3142C35.7814 15.2412 35.7506 15.3018 35.7032 15.2862C35.6707 15.2547 35.6311 15.2314 35.5878 15.2181C35.5445 15.2049 35.4987 15.2021 35.4541 15.21C35.1756 15.26 34.8884 15.2063 34.6468 15.0592C33.94 15.0579 33.2347 15.1229 32.5401 15.2531C32.0506 15.1843 31.3472 15.2352 30.8441 15.2153C30.6117 15.1639 30.4818 15.3891 30.2916 15.4163C29.5857 15.0755 28.7057 15.3217 27.9693 15.0578C27.2853 15.1085 26.5979 15.0924 25.9169 15.0098C25.6268 14.9839 25.3435 15.1275 25.0526 15.1113C24.8545 15.0398 24.644 15.0093 24.4337 15.0213C24.2234 15.0334 24.0178 15.0878 23.8291 15.1814C23.3854 15.1002 23.3525 15.4051 23.045 15.1123C22.461 14.9475 21.8445 15.3575 21.2574 15.3143H21.2575Z" fill="black"/>
<path d="M19.5188 24.4362C19.4638 23.6285 18.828 23.3268 18.1994 23.1187C17.7872 22.7933 17.2763 22.6182 16.7512 22.6222C16.2594 22.4531 15.735 22.4012 15.2197 22.4705C14.7043 22.5399 14.2123 22.7287 13.7828 23.0218C13.1144 23.5559 12.2673 24.4595 12.6856 25.4446C13.466 27.7963 16.7879 27.8737 18.5715 26.751C19.3063 26.2003 19.984 25.3938 19.5188 24.4362ZM18.249 24.8998C18.1747 24.9578 18.2296 25.0324 18.1832 25.0831C18.1422 25.1364 18.0513 25.1393 18.0177 25.2064C17.9658 25.4301 17.737 25.375 17.5619 25.3838C17.312 25.517 17.0467 25.6188 16.7718 25.687C16.6851 25.7718 16.5807 25.8363 16.4661 25.8759C16.3515 25.9156 16.2295 25.9293 16.109 25.9162C15.5108 25.8944 14.9384 25.5797 14.3977 25.6132C14.3604 25.5742 14.3396 25.5223 14.3398 25.4683C14.2507 25.1284 14.0144 25.1229 14.1611 24.8528C14.1463 24.7608 14.2848 24.7438 14.351 24.7074C14.4202 24.5031 14.6993 24.4783 14.878 24.2941C15.0664 24.1547 15.2569 24.2057 15.4831 24.1873C15.6901 24.1761 15.8865 24.0111 16.1138 24.0247C16.3043 24.0407 16.4711 24.1758 16.6482 24.1587C16.7468 24.1098 16.8551 24.0836 16.9651 24.0821C17.0751 24.0806 17.1841 24.1038 17.284 24.15C17.4599 24.1023 17.5094 24.1661 17.5347 24.3394C17.6906 24.5995 18.2768 24.6037 18.2541 24.8997L18.249 24.8998Z" fill="black"/>
<path d="M28.0091 23.3987C27.4029 23.19 26.9146 22.8507 26.3199 22.629C26.0282 22.6519 25.7352 22.605 25.4652 22.4919C25.0271 22.3843 24.5669 22.4099 24.1434 22.5653C22.5783 22.6096 20.9946 24.5815 22.073 26.0569C23.3587 27.8331 25.9768 27.7634 27.686 26.7514C28.1611 26.4211 28.5345 25.9647 28.7642 25.4335C28.8134 25.0585 28.7703 24.6772 28.6387 24.3226C28.5071 23.968 28.291 23.6509 28.0091 23.3987V23.3987ZM27.3635 24.9001C27.2892 24.9582 27.3438 25.0328 27.2977 25.0834C27.2564 25.1367 27.1658 25.1396 27.1323 25.2067C27.0803 25.4305 26.8516 25.3753 26.6764 25.3842C26.4265 25.5174 26.1612 25.6192 25.8864 25.6873C25.7997 25.7721 25.6953 25.8366 25.5807 25.8763C25.466 25.9159 25.3441 25.9296 25.2235 25.9165C24.6251 25.8947 24.0528 25.58 23.5122 25.6136C23.4748 25.5746 23.454 25.5226 23.4544 25.4686C23.3654 25.1289 23.1289 25.1232 23.2756 24.8531C23.2608 24.7609 23.3995 24.7441 23.4656 24.7077C23.5348 24.5034 23.8138 24.4786 23.9925 24.2944C24.1807 24.1551 24.3714 24.206 24.5977 24.1876C24.8047 24.1764 25.001 24.0115 25.228 24.025C25.4188 24.041 25.5856 24.1761 25.7625 24.1591C25.8611 24.1101 25.9694 24.0839 26.0795 24.0824C26.1896 24.0809 26.2986 24.1041 26.3985 24.1503C26.5742 24.1027 26.6242 24.1663 26.6489 24.3397C26.805 24.5997 27.3912 24.604 27.3686 24.9L27.3635 24.9001Z" fill="black"/>
<path d="M37.7416 24.4361C37.6862 23.6283 37.0508 23.3267 36.4219 23.1187C36.0097 22.7931 35.4988 22.618 34.9736 22.6222C34.4819 22.4531 33.9575 22.4012 33.4421 22.4705C32.9268 22.5399 32.4347 22.7286 32.0052 23.0218C31.3371 23.5561 30.4898 24.4595 30.9083 25.4446C31.6885 27.7963 35.0108 27.8736 36.7942 26.751C37.529 26.2002 38.2065 25.3938 37.7416 24.4361ZM36.4718 24.8997C36.3974 24.9578 36.4521 25.0324 36.4057 25.0831C36.3647 25.1364 36.2738 25.1393 36.2402 25.2064C36.1885 25.4304 35.9595 25.3748 35.7844 25.3838C35.5346 25.517 35.2693 25.6188 34.9946 25.6869C34.9079 25.7717 34.8035 25.8363 34.6889 25.8759C34.5743 25.9155 34.4523 25.9293 34.3317 25.9161C33.7336 25.8945 33.161 25.5796 32.6204 25.6132C32.583 25.5743 32.5623 25.5223 32.5626 25.4683C32.4733 25.1284 32.2374 25.1231 32.3836 24.8528C32.3687 24.7606 32.5077 24.7437 32.5738 24.7073C32.6426 24.5032 32.922 24.4781 33.1008 24.294C33.2889 24.1547 33.4797 24.2056 33.7059 24.1872C33.9126 24.176 34.1093 24.0111 34.3363 24.0247C34.5271 24.0407 34.6938 24.1758 34.8708 24.1587C34.9694 24.1098 35.0777 24.0836 35.1878 24.082C35.2978 24.0805 35.4068 24.1037 35.5067 24.15C35.6824 24.1023 35.7324 24.1662 35.7572 24.3394C35.9132 24.5993 36.4995 24.6037 36.4768 24.8997L36.4718 24.8997Z" fill="black"/>
<path d="M19.5189 31.6292C19.4638 30.8215 18.8278 30.52 18.1994 30.3117C17.7871 29.9864 17.2763 29.8113 16.7512 29.8153C16.2594 29.6462 15.735 29.5943 15.2197 29.6636C14.7043 29.733 14.2123 29.9217 13.7828 30.2148C13.1143 30.7491 12.2673 31.6526 12.6856 32.6377C13.4659 34.9895 16.7879 35.0668 18.5715 33.9441C19.3064 33.3932 19.984 32.5871 19.5189 31.6292ZM18.2491 32.0928C18.1747 32.1509 18.2296 32.2255 18.1833 32.2764C18.1422 32.3294 18.0514 32.3323 18.0178 32.3994C17.9658 32.6233 17.7371 32.568 17.5619 32.5771C17.312 32.7101 17.0466 32.8118 16.7719 32.88C16.6853 32.9649 16.5809 33.0295 16.4662 33.0692C16.3516 33.1088 16.2296 33.1225 16.109 33.1092C15.5108 33.0876 14.9386 32.7725 14.3977 32.8065C14.3604 32.7674 14.3397 32.7154 14.3399 32.6614C14.2507 32.3215 14.0145 32.316 14.1611 32.0459C14.1501 31.9481 14.2816 31.9402 14.3511 31.9004C14.4202 31.6963 14.6993 31.6713 14.878 31.4871C15.0664 31.3478 15.2569 31.3987 15.4831 31.3806C15.6902 31.3691 15.8865 31.2045 16.1138 31.2181C16.3043 31.2338 16.4711 31.3691 16.6483 31.3521C16.7468 31.3031 16.8551 31.2768 16.9651 31.2753C17.0751 31.2737 17.1841 31.2969 17.284 31.3431C17.4599 31.2954 17.5095 31.3596 17.5347 31.5327C17.6908 31.7925 18.2768 31.7968 18.2541 32.0928L18.2491 32.0928Z" fill="black"/>
<path d="M23.4288 34.3236C24.1208 34.5874 24.8637 34.6903 25.6012 34.6246C26.3388 34.5589 27.0518 34.3263 27.6863 33.9444C28.1614 33.614 28.5348 33.1576 28.7645 32.6265C28.8137 32.2515 28.7706 31.8702 28.639 31.5156C28.5075 31.1611 28.2914 30.844 28.0095 30.5919C27.6705 30.4874 27.3489 30.333 27.0553 30.1339C26.0296 29.6541 24.8729 29.5313 23.7693 29.785C21.3441 30.5288 20.9311 33.3179 23.4288 34.3236ZM23.2759 32.0461C23.2648 31.9473 23.3967 31.941 23.4659 31.9007C23.535 31.6967 23.8141 31.6714 23.9928 31.4874C24.181 31.3481 24.3717 31.399 24.598 31.3808C24.805 31.3694 25.0013 31.2047 25.2284 31.2183C25.4191 31.234 25.5859 31.3694 25.7628 31.3523C25.8614 31.3033 25.9697 31.2771 26.0798 31.2755C26.1899 31.274 26.2989 31.2971 26.3988 31.3433C26.5742 31.2952 26.6247 31.3602 26.6492 31.533C26.8055 31.7927 27.3915 31.797 27.3689 32.093C27.2868 32.1386 27.3453 32.229 27.298 32.2766C27.2567 32.3296 27.1661 32.3325 27.1326 32.3997C27.0807 32.6239 26.8517 32.568 26.6767 32.5774C26.4267 32.7103 26.1614 32.812 25.8867 32.8803C25.8001 32.9652 25.6957 33.0298 25.581 33.0694C25.4664 33.109 25.3444 33.1227 25.2238 33.1094C24.6254 33.0878 24.0533 32.7727 23.5125 32.8068C23.4751 32.7677 23.4544 32.7157 23.4547 32.6616C23.3658 32.3221 23.1291 32.316 23.2759 32.0461V32.0461Z" fill="black"/>
<path d="M37.7416 31.6294C37.6862 30.8215 37.0506 30.5202 36.4219 30.312C36.0097 29.9865 35.4988 29.8114 34.9736 29.8155C34.4819 29.6464 33.9574 29.5945 33.4421 29.6639C32.9268 29.7333 32.4347 29.922 32.0052 30.2151C31.3371 30.7495 30.4898 31.6529 30.9083 32.6379C31.6884 34.9897 35.0107 35.067 36.7942 33.9443C37.529 33.3934 38.2065 32.5873 37.7416 31.6294ZM36.4718 32.093C36.3974 32.1511 36.452 32.2257 36.4057 32.2766C36.3647 32.3296 36.2738 32.3325 36.2402 32.3997C36.1885 32.6238 35.9595 32.5681 35.7843 32.5774C35.5345 32.7103 35.2693 32.812 34.9946 32.8802C34.908 32.9651 34.8036 33.0298 34.689 33.0694C34.5743 33.109 34.4523 33.1227 34.3317 33.1094C33.7336 33.0879 33.1611 32.7727 32.6204 32.8068C32.5831 32.7677 32.5623 32.7157 32.5626 32.6616C32.4733 32.3217 32.2374 32.3165 32.3836 32.0461C32.3725 31.9482 32.5044 31.9404 32.5738 31.9006C32.6426 31.6966 32.922 31.6715 33.1008 31.4873C33.2889 31.348 33.4797 31.3989 33.7059 31.3808C33.9126 31.3693 34.1093 31.2047 34.3363 31.2183C34.527 31.234 34.6938 31.3693 34.8707 31.3523C34.9693 31.3033 35.0777 31.2771 35.1877 31.2755C35.2978 31.2739 35.4068 31.2971 35.5067 31.3433C35.6823 31.2956 35.7324 31.36 35.7572 31.533C35.9134 31.7925 36.4995 31.7971 36.4768 32.093L36.4718 32.093Z" fill="black"/>
<path d="M19.5189 38.8215C19.4638 38.0139 18.828 37.7121 18.1994 37.5043C17.7872 37.1789 17.2763 37.0036 16.7512 37.0076C16.2594 36.8385 15.735 36.7866 15.2196 36.8561C14.7043 36.9255 14.2122 37.1143 13.7827 37.4074C13.1142 37.9412 12.2673 38.8452 12.6856 39.83C13.4656 42.182 16.7879 42.2589 18.5714 41.1367C19.3062 40.5854 19.9841 39.7798 19.5189 38.8215ZM18.249 39.2851C18.1747 39.3434 18.2296 39.4178 18.1832 39.4687C18.1422 39.5217 18.0514 39.5246 18.0178 39.5918C17.9658 39.8157 17.7371 39.7603 17.5619 39.7694C17.3119 39.9023 17.0466 40.0042 16.7719 40.0726C16.6852 40.1574 16.5808 40.222 16.4662 40.2616C16.3515 40.3011 16.2296 40.3148 16.109 40.3015C15.5109 40.28 14.9384 39.9649 14.3977 39.9989C14.3604 39.9598 14.3397 39.9077 14.3399 39.8537C14.2505 39.5136 14.0146 39.5086 14.1611 39.2382C14.1464 39.1464 14.2846 39.1291 14.3511 39.0931C14.4199 38.8887 14.6994 38.8639 14.878 38.6794C15.0664 38.5401 15.2569 38.591 15.4831 38.5729C15.6902 38.5615 15.8865 38.3968 16.1138 38.4104C16.3043 38.4264 16.4711 38.5615 16.6483 38.5444C16.7468 38.4953 16.8551 38.4691 16.9651 38.4676C17.0752 38.4661 17.1842 38.4893 17.284 38.5357C17.46 38.488 17.5094 38.5517 17.5347 38.7251C17.6905 38.985 18.2768 38.9896 18.2541 39.2851H18.249Z" fill="black"/>
<path d="M37.501 38.2582C37.2224 37.6902 36.7537 37.2377 36.1764 36.9791C35.599 36.7205 34.9493 36.6721 34.34 36.8423C30.8819 36.6411 27.4143 36.6668 23.9596 36.9192C22.6479 36.9008 21.964 38.5169 21.8125 39.6181C21.8793 40.0217 22.0338 40.3799 22.0974 40.7873C22.3377 41.6033 23.1881 41.9579 23.9215 42.2417C27.3056 42.2769 30.7413 42.3649 34.1631 42.2516C34.6321 42.3257 35.1112 42.3064 35.5728 42.1949C36.0344 42.0834 36.4695 41.8819 36.853 41.6019C37.2638 41.1614 37.5424 40.6143 37.6569 40.023C37.7715 39.4318 37.7175 38.8202 37.501 38.2582V38.2582ZM36.3164 40.0231C35.8352 40.127 35.8001 40.8454 35.1795 40.8389V40.8336C34.7422 40.7721 34.3002 40.7498 33.8588 40.767C33.4738 40.5966 33.0483 40.5391 32.6318 40.6011C32.0412 40.4683 31.5306 40.8508 30.9488 40.7777C30.2282 40.7188 29.5041 40.718 28.7834 40.7754C28.6078 40.8906 28.4335 41.0206 28.2354 40.8581C27.691 40.7662 27.1411 40.7109 26.5894 40.6925C25.9112 40.5897 25.2237 40.5631 24.5396 40.613C24.2231 40.6665 24.164 40.5418 23.9945 40.4374C23.8632 40.3508 23.6345 40.3484 23.5304 40.179C23.4454 40.0356 23.5077 39.8603 23.4371 39.7407C23.3592 39.6754 23.3037 39.5874 23.2782 39.489C23.2527 39.3906 23.2585 39.2867 23.2949 39.1918C23.2318 39.0288 23.3065 38.9664 23.4721 38.9542C23.7717 38.7343 23.892 38.1931 24.4189 38.2065V38.2118C25.0555 38.2131 25.6893 38.297 26.3042 38.4615C27.0901 38.4629 27.8747 38.398 28.6497 38.2677C29.1962 38.3361 29.9774 38.2858 30.5379 38.3054C30.7905 38.3582 30.9401 38.1333 31.1531 38.1047C31.9146 38.4436 32.849 38.1899 33.7389 38.4629C34.1715 38.3921 34.6204 38.5317 35.0588 38.4324C35.3753 38.3789 35.4342 38.5036 35.604 38.608C35.7353 38.6946 35.9639 38.697 36.0681 38.8665C36.1528 39.0098 36.0905 39.1852 36.1614 39.3048C36.2069 39.3847 36.3404 39.4964 36.3412 39.6229C36.2752 39.8615 36.3352 39.8532 36.3164 40.0231Z" fill="black"/>
</svg>
