<svg width="50" height="50" viewBox="0 0 50 50" fill="none" xmlns="http://www.w3.org/2000/svg">
<path d="M47.1985 12.5938H2.60289C2.20736 12.5938 1.88672 12.9144 1.88672 13.3099V43.6009C1.88672 43.9964 2.20736 44.3171 2.60289 44.3171H47.1985C47.5941 44.3171 47.9147 43.9964 47.9147 43.6009V13.3099C47.9147 12.9144 47.5941 12.5938 47.1985 12.5938Z" fill="white"/>
<path d="M37.3655 38.9677C36.5536 40.3684 35.4903 41.6074 34.2289 42.6223C31.0737 45.1136 27.0872 44.3171 23.3513 44.3171C16.4697 44.3171 9.58817 44.3171 2.70662 44.3171C2.48916 44.317 2.28062 44.2306 2.12686 44.0769C1.9731 43.9231 1.88672 43.7145 1.88672 43.4971V13.4137C1.88672 13.306 1.90793 13.1994 1.94913 13.0999C1.99034 13.0005 2.05074 12.9101 2.12688 12.8339C2.20302 12.7578 2.29341 12.6974 2.39289 12.6562C2.49238 12.615 2.599 12.5937 2.70668 12.5938H27.8405C31.2362 12.5938 33.6522 14.3243 35.9054 16.7604C40.7778 22.0285 41.2763 32.3658 37.3655 38.9677Z" fill="#F15E4A"/>
<path d="M23.6243 19.5413H7.39949C7.04294 19.5413 6.75391 19.8303 6.75391 20.1868V37.6384C6.75391 37.9949 7.04294 38.284 7.39949 38.284H23.6243C23.9808 38.284 24.2698 37.9949 24.2698 37.6384V20.1868C24.2698 19.8303 23.9808 19.5413 23.6243 19.5413Z" fill="#F0DAD6"/>
<path d="M29.3745 4.48901H20.4219V15.6103H29.3745V4.48901Z" fill="white"/>
<path d="M19.4576 26.1152C19.6122 25.6196 19.3025 25.3475 19.0722 24.9785C19.0066 24.7153 18.9183 24.4583 18.8083 24.2103C18.7477 24.1089 18.6213 24.0699 18.5555 23.9779C18.4877 23.7637 18.3754 23.5663 18.2261 23.3984C18.0768 23.2306 17.8937 23.0961 17.6889 23.0038C17.5608 22.8496 17.3989 22.727 17.2158 22.6454C17.0327 22.5638 16.8333 22.5255 16.633 22.5334C15.687 22.211 14.6546 22.2544 13.7391 22.6551C13.1696 22.9417 12.6747 23.3571 12.2939 23.8684C11.9131 24.3797 11.6567 24.9728 11.5452 25.6005C11.4739 25.7599 11.4385 25.9331 11.4416 26.1077C11.4446 26.2824 11.486 26.4542 11.5629 26.6111C11.4083 27.1065 11.7176 27.3787 11.9482 27.7475C12.0138 28.0108 12.1021 28.268 12.2121 28.516C12.3947 28.6447 12.5291 28.8307 12.594 29.0445C12.7577 29.4851 13.2525 29.5884 13.5305 29.9225C13.7952 30.1925 14.2156 30.14 14.5406 30.2352C15.4441 30.5122 16.4173 30.4539 17.2813 30.0712C17.8509 29.7846 18.3457 29.3691 18.7265 28.8578C19.1073 28.3464 19.3636 27.7533 19.475 27.1255C19.5464 26.9662 19.5819 26.7931 19.5789 26.6184C19.5759 26.4438 19.5344 26.272 19.4576 26.1152V26.1152ZM18.193 26.3632C18.1244 26.4544 18.1751 26.5599 18.1578 26.6297C18.0348 26.7955 18.0666 26.8178 18.0465 27.0032C17.8614 27.2301 17.7684 27.1164 17.6948 27.4905C17.6323 27.558 17.5846 27.6379 17.5546 27.7249C17.5247 27.8119 17.5131 27.9043 17.5208 27.996C17.4178 28.3473 16.7367 28.5888 16.4697 28.8065C16.4194 28.9362 16.3997 29.0971 16.236 28.9673C16.0332 28.8516 15.8495 29.0132 15.6489 28.9566C15.3878 28.8638 15.3197 28.9685 15.0899 28.7662C14.8905 28.8061 14.7196 28.6094 14.504 28.619C14.3265 28.5961 14.2744 28.447 14.1578 28.3405C14.0558 28.2391 13.8584 28.2536 13.7564 28.1346C13.6785 28.0284 13.6851 27.8663 13.5842 27.7942C13.5045 27.7468 13.3692 27.7437 13.3108 27.6678C13.2242 27.4632 13.2259 27.5445 13.1105 27.4265C13.0967 27.3801 13.1627 27.321 13.1888 27.2695C13.225 26.9515 12.7931 26.7209 12.8226 26.3632H12.8274C12.896 26.2717 12.8453 26.1665 12.8626 26.0964C12.9835 25.9353 12.9544 25.9046 12.9739 25.7228C13.1591 25.4958 13.2516 25.6105 13.3255 25.2359C13.388 25.1683 13.4357 25.0884 13.4657 25.0014C13.4957 24.9144 13.5072 24.8221 13.4996 24.7303C13.6022 24.3794 14.2834 24.1371 14.5507 23.9198C14.6011 23.7901 14.6205 23.629 14.7844 23.7591C14.9872 23.8747 15.1709 23.7129 15.3715 23.7697C15.6325 23.8624 15.7013 23.7578 15.9305 23.9601C16.1297 23.9198 16.3007 24.117 16.5163 24.1073C16.6939 24.1302 16.7459 24.2793 16.8626 24.3858C16.9645 24.4872 17.162 24.4727 17.2639 24.5915C17.3419 24.6977 17.3353 24.86 17.4361 24.9321C17.5159 24.9795 17.6512 24.9826 17.7096 25.0585C17.796 25.2627 17.7945 25.1818 17.9099 25.2995C17.9236 25.3462 17.8576 25.4051 17.8316 25.4565C17.7953 25.7749 18.227 26.0053 18.1978 26.3631L18.193 26.3632Z" fill="black"/>
<path d="M25.0632 27.0685C25.093 26.1689 25.0768 25.2683 25.0147 24.3703C24.8769 24.0128 25.117 23.6522 24.9809 23.2637C24.634 22.6553 25.0477 21.9832 24.8665 21.3503C25.199 20.4579 25.0804 18.9125 23.7856 18.7225C22.8391 18.8097 21.887 18.8194 20.9389 18.7514C18.8932 18.572 16.8663 18.8722 14.842 18.7158C14.6447 18.7423 14.4423 18.8425 14.2516 18.8534C13.7454 18.6669 13.3318 18.9077 12.8525 18.9887C12.4137 18.8936 11.9616 18.8776 11.5173 18.9416C11.0314 18.7858 10.5171 18.7397 10.0113 18.8065C9.5166 18.704 9.00575 18.7078 8.51257 18.8175C8.03155 18.8119 7.9202 18.7981 7.34733 18.753C6.99994 18.7807 6.6721 18.925 6.41707 19.1624C6.16204 19.3999 5.99479 19.7167 5.9425 20.0612C5.87517 22.5255 5.95349 25.0026 6.03692 27.4201C6.38383 28.0306 5.97037 28.6993 6.15149 29.3335C5.7515 30.6966 6.13761 31.9368 5.96011 33.3705C6.01043 35.0897 5.69856 36.5518 6.11322 38.2937C6.52347 39.2492 7.62323 39.0943 8.47532 39.051C8.76022 39.1205 9.05843 39.1137 9.33988 39.0313C9.69834 38.8937 10.0571 39.1335 10.4465 38.9977C10.9361 38.8216 11.4689 38.8058 11.968 38.9526C12.5996 38.7972 13.1447 39.1798 13.8658 39.0182C14.3606 39.1207 14.8714 39.117 15.3646 39.0071C16.9589 39.1375 18.5604 39.1547 20.1571 39.0586C21.6123 38.8924 24.8688 39.8321 24.9792 37.6586C24.9366 37.3295 24.7368 37.0405 24.8645 36.7049C24.8617 36.2256 24.8939 35.7468 24.9607 35.2721C25.0436 34.8957 25.0573 34.5073 25.0014 34.126C25.0614 31.4178 25.1322 29.7719 25.0632 27.0685ZM20.0231 37.6414C19.56 37.5756 18.8933 37.6245 18.4173 37.6054C18.1966 37.5562 18.0739 37.7721 17.8941 37.7975C17.2264 37.4718 16.3921 37.7071 15.6951 37.4548C15.0475 37.5039 14.3965 37.4884 13.7519 37.4087C13.477 37.3843 13.2089 37.5213 12.9332 37.5058C12.7458 37.4374 12.5463 37.4081 12.3471 37.4196C12.1479 37.4312 11.9531 37.4834 11.7749 37.5731C11.3551 37.4951 11.3229 37.7869 11.0324 37.5068C10.5914 37.4602 10.1457 37.5152 9.72937 37.6676C9.81302 37.4022 9.93904 37.152 10.1025 36.9268L10.1767 36.963C10.2163 36.5768 10.5984 36.3875 10.6957 35.9978C10.7066 35.8527 10.7488 35.7118 10.8195 35.5847C10.8902 35.4576 10.9877 35.3474 11.1052 35.2617C11.4484 34.8561 11.54 34.9619 11.8518 34.501C12.5653 34.2449 12.9518 33.7767 13.4247 33.7207C13.8016 33.6616 14.0897 33.3626 14.4615 33.2932C14.9087 33.2397 15.3594 33.2208 15.8095 33.2365C16.8407 33.4268 17.8275 33.8075 18.7194 34.3589C19.3613 34.904 19.928 35.5317 20.4048 36.2258C20.4958 36.499 20.6443 36.7495 20.8402 36.9605L20.9002 36.9309C21.0262 37.1018 21.1388 37.2823 21.237 37.4706C20.8044 37.4019 20.4504 37.7288 20.0231 37.6414ZM23.7015 30.276C23.5283 30.5418 23.6795 31.5203 23.438 32.2966C23.4871 32.9443 23.4717 33.5952 23.392 34.2398C23.3675 34.5148 23.5046 34.7828 23.489 35.0583C23.4208 35.2458 23.3916 35.4452 23.4032 35.6444C23.4147 35.8436 23.4668 36.0383 23.5562 36.2166C23.5368 36.3987 23.5592 36.5828 23.6218 36.7548C23.5494 36.9151 23.3974 37.0412 23.4516 37.2512C23.4625 37.3207 23.4455 37.4092 23.502 37.4311C23.5974 37.4874 23.6105 37.7103 23.4669 37.6999C23.4577 37.6859 23.4444 37.6751 23.4287 37.669C23.4131 37.6629 23.396 37.6619 23.3797 37.666C23.1513 37.7154 22.9965 37.5949 22.7824 37.6003C22.6568 37.6409 22.5215 37.6409 22.3959 37.6003C22.3908 37.2431 22.2883 36.8942 22.0995 36.591C22.069 36.5235 22.1581 36.3958 22.1219 36.3306L21.7176 36.5293L22.0394 36.3711C22.0175 36.1802 21.8636 36.0271 21.8126 35.8989C21.782 35.7508 21.7267 35.609 21.649 35.4792C21.4489 35.2446 21.3134 34.9618 21.2561 34.6587C20.9838 34.2876 20.6695 33.9491 20.3195 33.6502C20.0028 33.5295 19.7084 33.357 19.4485 33.1395C18.9553 32.7312 18.3937 32.4133 17.7897 32.2008C17.5642 32.0673 17.3572 32.2115 17.1412 32.1938C16.7477 31.9214 16.2768 31.7836 15.7985 31.8009C15.4593 31.7531 15.1173 31.7278 14.7747 31.7251C14.2347 31.7192 13.7007 31.8394 13.2153 32.0762C12.5639 32.2393 11.9665 32.57 11.4824 33.0355C11.2279 33.1501 10.9916 33.3013 10.7809 33.4843C10.6379 33.774 10.4527 34.0407 10.2312 34.2757C10.2141 34.3635 10.169 34.4433 10.1026 34.5031C10.0363 34.563 9.95226 34.5997 9.86325 34.6077C9.33238 35.0297 9.29244 35.836 8.98169 36.3764L8.90876 36.3405C8.87257 36.4057 8.98342 36.5398 8.9531 36.6068C8.76127 36.9137 8.65925 37.2682 8.65859 37.6301C8.34122 37.6544 8.02306 37.5943 7.73639 37.456C7.56763 37.4296 7.65764 37.4382 7.59471 37.4693C7.58266 37.3987 7.51889 37.478 7.43137 37.4255C7.29766 37.0805 7.4846 36.5856 7.42366 36.1879C7.44375 35.8436 7.43422 35.4983 7.39518 35.1556C7.34677 35.0547 7.23313 34.9806 7.23721 34.8677C7.54485 34.2571 7.3506 33.4925 7.52773 32.8547C7.63159 32.6944 7.51883 32.5291 7.56107 32.3581C7.59922 32.0885 7.59578 31.8147 7.55087 31.5463C7.53613 31.2705 7.56145 30.994 7.62602 30.7255C7.65047 30.4508 7.51338 30.1828 7.52895 29.9071C7.58666 29.6825 7.61703 29.4517 7.61941 29.2198C7.50024 28.9716 7.44549 28.6973 7.46021 28.4223C7.4372 28.3906 7.42069 28.3546 7.41164 28.3165C7.40259 28.2784 7.40118 28.2388 7.40748 28.2002C7.41378 28.1615 7.42767 28.1244 7.44835 28.0911C7.46903 28.0579 7.4961 28.029 7.52798 28.0062C7.68558 27.4533 7.29349 26.8695 7.33477 26.3135H7.33962C7.4093 26.0108 7.31408 26.0521 7.43422 25.4747C7.38668 25.2108 7.43812 24.9386 7.5787 24.7102C7.63424 24.2061 7.58408 23.6959 7.43143 23.2123C7.30791 22.4935 7.53419 21.6086 7.39521 20.8741C7.29189 20.7311 7.15484 20.5737 7.31652 20.415C7.46577 20.35 7.38473 20.22 7.51795 20.2221C7.56917 20.2363 7.59185 20.2748 7.6171 20.2646C7.80982 20.2695 8.00052 20.3051 8.18202 20.3701C8.54836 20.3021 8.93199 20.4359 9.30471 20.3408C9.5804 20.3263 9.85674 20.3516 10.1252 20.4159C10.4001 20.4407 10.6682 20.3036 10.9439 20.3189C11.1314 20.3872 11.3308 20.4165 11.53 20.405C11.7292 20.3935 11.9239 20.3415 12.1023 20.2521C12.5221 20.3295 12.5535 20.0375 12.8448 20.3181C13.3977 20.4753 13.9815 20.0837 14.5372 20.1247V20.1298C14.9085 20.189 15.2849 20.2104 15.6604 20.1935C15.982 20.3581 16.3482 20.4138 16.7041 20.3522C17.2116 20.4791 17.6375 20.1129 18.1354 20.1835C18.748 20.2391 19.3643 20.2397 19.9769 20.1853C20.1273 20.076 20.2712 19.9501 20.4432 20.1065C20.905 20.1958 21.3731 20.2486 21.8432 20.2645C22.0548 20.2602 22.2653 20.296 22.4636 20.37C22.7662 20.2801 23.1208 20.4597 23.4064 20.3407C23.4628 20.289 23.4299 20.41 23.3916 20.4174C23.6461 20.514 23.3366 21.2229 23.3985 21.4639C23.5178 21.7122 23.5725 21.9866 23.5577 22.2617C23.5807 22.2934 23.5972 22.3294 23.6063 22.3675C23.6153 22.4056 23.6168 22.4451 23.6105 22.4838C23.6042 22.5224 23.5903 22.5595 23.5696 22.5927C23.5489 22.626 23.5218 22.6548 23.4899 22.6776C23.3322 23.2307 23.7245 23.814 23.6832 24.3703H23.6783C23.6189 24.7415 23.5976 25.1179 23.6146 25.4935C23.3615 26.1269 23.3514 26.8315 23.5863 27.4718C23.6872 28.0747 23.5433 28.9273 23.5887 29.5743C23.5274 29.864 23.9368 30.0139 23.7015 30.276Z" fill="black"/>
<path d="M48.7107 33.3503C48.7411 32.4669 48.7249 31.5825 48.6622 30.7008C48.5254 30.3487 48.7637 29.9973 48.6287 29.614C48.4855 29.364 48.4438 29.0686 48.5123 28.7887C48.4934 27.9287 48.7296 27.1321 48.6491 26.2562C48.8222 25.4645 48.5633 24.127 48.7042 22.9625C48.8039 20.7735 48.77 18.5804 48.6024 16.3955C48.855 15.8023 48.3639 15.3302 48.5122 14.7642C48.4627 13.857 49.0048 12.5475 47.9076 12.0217C47.2878 11.7639 46.6017 11.7117 45.9501 11.8729C44.0603 11.7765 42.1795 11.724 40.3142 11.7976C39.4307 11.7672 38.5462 11.7833 37.6644 11.8459C37.3142 11.9832 36.9595 11.7442 36.5777 11.8797C36.3277 12.0228 36.0323 12.0644 35.7526 11.9959C35.2872 11.9084 34.6782 12.0489 34.3455 11.9C33.878 11.7276 33.3796 11.9457 32.9176 11.7913C32.5263 11.6792 32.1382 11.8915 31.748 11.8701C31.1952 11.8535 30.6706 11.7995 30.1315 11.8176C30.093 11.2379 30.3264 11.0343 30.0974 10.3577C30.2249 8.65882 30.2405 6.95336 30.1442 5.25238C30.3408 3.76309 28.9021 3.99204 27.9204 4.04315C27.5693 3.966 27.2032 3.9937 26.8676 4.1228C26.2106 3.86518 25.9137 4.3712 25.3472 4.21275C24.8612 4.12067 24.33 4.26724 24.0356 4.11652C23.6921 4.03353 23.3355 4.01964 22.9866 4.07566C22.5346 3.97286 22.0649 3.9767 21.6147 4.08687C19.357 3.81563 19.6486 4.72248 19.5833 6.56751C19.5437 8.03404 19.7312 9.49888 19.599 10.9708C19.7213 11.2449 19.7488 11.5518 19.6773 11.8433C16.4091 11.8255 12.9189 11.6843 9.61517 11.846C9.26462 11.9847 8.91043 11.7429 8.52841 11.8797C7.91842 12.225 7.27203 11.8137 6.64944 11.9941C6.06367 11.8687 5.46703 11.8008 4.86805 11.7915C4.31104 11.6981 3.75034 11.9567 3.18631 11.8535C0.73177 11.4043 0.898689 14.1429 1.11188 15.7957C1.06163 16.9293 1.07072 18.0647 1.13911 19.1974C1.27638 19.55 1.03682 19.9009 1.1725 20.2841C1.33159 20.6821 1.36476 21.1192 1.26754 21.5366C1.21259 21.7429 1.21943 21.9607 1.28723 22.1632C1.15521 22.5463 1.10199 22.9522 1.13078 23.3564C1.16817 23.5531 1.15204 23.7562 1.08408 23.9445C0.973052 24.3387 1.18346 24.722 1.16314 25.1141C0.993019 28.1856 1.05158 31.2746 1.17247 34.3089C1.51713 34.9009 1.10717 35.5708 1.28722 36.1879C0.886957 38.439 1.24836 40.7574 1.01333 43.0622C1.04555 45.2579 2.5281 45.2222 4.27508 45.0844C4.65203 45.1595 5.04224 45.1319 5.4049 45.0046C6.09576 45.2602 6.42963 44.7587 7.03621 44.9147C7.2611 44.9137 7.48541 44.9376 7.70508 44.9857C8.31593 44.8296 8.85608 45.2126 9.56877 45.0514C12.4545 45.1471 15.3828 45.1728 18.2998 45.0844C18.677 45.154 19.0657 45.1265 19.4294 45.0045C19.9297 45.1899 20.3319 44.9508 20.8036 44.8693C21.1118 44.9351 21.4252 44.9096 21.7298 44.9857C22.3641 44.8319 22.8818 45.2133 23.5935 45.0514C24.0792 45.1537 24.5812 45.15 25.0653 45.0405C26.6308 45.1709 28.2037 45.188 29.7717 45.0915C30.9994 45.1698 32.2315 45.1408 33.4542 45.0047C34.1087 45.2564 34.5457 44.7541 35.0855 44.9147C35.9296 44.894 36.751 45.1333 37.6183 45.0516C38.5242 45.2902 39.1184 44.8838 40.1037 45.1081C42.5098 45.1408 44.9403 45.1885 47.335 45.0577C47.9261 44.8825 48.6279 44.5495 48.6126 43.7981C48.4662 43.342 48.439 42.856 48.5336 42.3864C48.5887 42.1802 48.5819 41.9622 48.5139 41.7599C48.6698 41.2833 48.7159 40.7778 48.649 40.2809C48.6902 37.6068 48.7949 35.9672 48.7107 33.3503ZM20.9896 5.84432C21.1451 5.57345 21.0336 5.59592 21.0959 5.51026C21.1384 5.50057 21.1889 5.54441 21.2039 5.5337C21.2719 5.50632 21.281 5.6227 21.3122 5.63921C21.6462 5.57142 21.9988 5.70519 22.3396 5.61014C22.5924 5.59555 22.8459 5.62091 23.0908 5.68529C23.3423 5.70974 23.5877 5.57266 23.8399 5.58822C24.0527 5.60122 24.2601 5.72251 24.4691 5.67868C24.6926 5.55794 24.9456 5.50274 25.1991 5.51942C25.364 5.41827 25.4511 5.45419 25.5798 5.5872C26.0849 5.74492 26.6207 5.35277 27.129 5.39405V5.3989C27.405 5.47178 27.3404 5.36883 27.897 5.49343C28.0775 5.42718 28.432 5.49135 28.5045 5.63791C28.5027 5.6802 28.5256 5.6216 28.5455 5.6216C28.5536 5.6904 28.5765 5.60657 28.6964 5.63995C28.829 5.7936 28.6416 6.3919 28.7041 6.66912C28.684 6.98417 28.6935 7.30041 28.7325 7.61368C28.7809 7.70618 28.8946 7.77396 28.8905 7.87715C28.7357 8.212 28.6723 8.58184 28.7066 8.94914C28.6129 9.20797 28.7047 9.46513 28.6003 9.71968C28.573 9.76454 28.5566 9.81519 28.5524 9.86755C28.5482 9.91991 28.5564 9.97251 28.5763 10.0211C28.5333 10.3183 28.5335 10.6202 28.5771 10.9173C28.5916 11.1701 28.5661 11.4236 28.5017 11.6685C28.4772 11.92 28.6143 12.1654 28.5987 12.4176C28.4085 13.1314 28.5834 13.0201 28.7316 13.9702C28.6395 14.0721 28.5792 14.1986 28.5579 14.3343C28.5366 14.47 28.5553 14.6089 28.6117 14.7341C28.6799 14.7649 28.8599 15.0009 28.7363 15.0266C28.6526 14.9573 28.6299 15.0141 28.588 14.9999C28.443 14.8516 28.3681 14.9751 28.1798 14.9578C27.704 14.7711 27.1861 14.718 26.6823 14.8042C26.2022 15.0832 25.6949 14.9091 25.1738 14.9374C24.8587 14.9172 24.5423 14.9267 24.229 14.966C24.091 15.0745 23.962 15.2019 23.8024 15.0447C23.5377 14.8941 22.9871 14.9856 22.521 14.8867C22.3265 14.8908 22.1331 14.8549 21.953 14.7812C21.7387 14.8765 21.4534 14.6961 21.2686 14.8105C21.2044 14.8681 21.2566 14.7519 21.2992 14.7341C21.0282 14.7588 21.3751 14.0851 21.2926 13.9098C21.1722 13.6861 21.1171 13.4332 21.1334 13.1798C21.0341 13.0144 21.0661 12.9285 21.2014 12.7988C21.3584 12.2933 20.9668 11.7582 21.0079 11.2496H21.013C21.0731 10.9104 21.0944 10.5656 21.0767 10.2217C21.3255 9.64562 21.3355 8.99443 21.1047 8.41096C21.003 7.94212 21.147 7.04671 21.1024 6.48637C21.1618 6.21456 20.7545 6.08766 20.9896 5.84432ZM47.1149 25.562C47.1294 25.833 47.1039 26.1045 47.0394 26.368C47.015 26.6379 47.152 26.9011 47.1365 27.1719C47.0679 27.3558 47.0384 27.5519 47.05 27.7478C47.0615 27.9436 47.1139 28.1349 47.2036 28.3094C47.1265 28.7265 47.4184 28.752 47.1375 29.0384C46.9804 29.5814 47.3718 30.1548 47.3309 30.7008H47.3258C47.2661 31.0652 47.2447 31.4348 47.2621 31.8036C47.009 32.4247 46.999 33.1182 47.2341 33.7463C47.335 34.2962 47.1915 35.1957 47.2362 35.8113C47.1758 36.0969 47.5842 36.2424 47.349 36.5003C47.2594 36.9535 47.2065 37.4133 47.1909 37.875C47.2163 38.3202 47.061 38.2203 47.1044 38.7895C47.126 39.3248 47.1042 39.861 47.0393 40.3928C47.0149 40.6626 47.152 40.9258 47.1365 41.1964C47.0788 41.4169 47.0484 41.6436 47.046 41.8714C47.313 42.4868 47.1082 42.3186 47.2692 42.8624C47.1741 43.0302 46.9838 43.282 47.1487 43.4719C47.2355 43.5366 47.2268 43.7445 47.0908 43.7333L47.1051 43.8108H47.1051C47.1182 43.6258 46.9248 43.7267 46.7514 43.7066C46.6294 43.6661 46.5026 43.6416 46.3743 43.6337C45.8973 43.7509 45.6467 43.3516 45.0704 43.5056C44.5712 43.3791 44.1544 43.7448 43.6649 43.6744C43.0634 43.619 42.4581 43.6184 41.8565 43.6727C41.7089 43.7817 41.568 43.9081 41.3989 43.7514C40.7823 43.5491 40.0391 43.717 39.4147 43.4879C38.7787 43.5386 38.1392 43.5232 37.5064 43.4418C37.2363 43.4174 36.9731 43.5544 36.7025 43.5389C36.4821 43.4812 36.2555 43.4508 36.0277 43.4484C35.7846 43.5678 35.5149 43.6227 35.2445 43.608C35.2134 43.6311 35.178 43.6477 35.1404 43.6568C35.1028 43.6659 35.0638 43.6674 35.0256 43.661C34.9874 43.6547 34.9509 43.6406 34.9183 43.6198C34.8857 43.599 34.8576 43.5719 34.8357 43.5399C34.2929 43.3827 33.7195 43.7741 33.1736 43.7333V43.7282C32.8092 43.6685 32.4394 43.6472 32.0705 43.6645C31.4495 43.4115 30.756 43.4015 30.1279 43.6365C29.2945 43.806 28.3085 43.3865 27.5495 43.8307C26.8947 43.5055 26.0737 43.7399 25.39 43.4879C24.754 43.5386 24.1145 43.5232 23.4817 43.4419C23.2118 43.4174 22.9484 43.5545 22.6778 43.539C22.494 43.4703 22.2978 43.4408 22.1019 43.4523C21.9061 43.4639 21.7148 43.5162 21.5403 43.606C21.1225 43.5287 21.0986 43.821 20.811 43.54C20.2682 43.3828 19.6948 43.7741 19.1489 43.7334V43.7283C18.7845 43.6685 18.4149 43.6471 18.0461 43.6645C17.425 43.4115 16.7313 43.4015 16.1032 43.6365C15.2699 43.806 14.2837 43.3865 13.5247 43.8307C12.87 43.5054 12.0489 43.7401 11.3652 43.4879C10.7293 43.5386 10.0897 43.5232 9.45695 43.4419C9.1871 43.4174 8.92389 43.5545 8.6533 43.539C8.46943 43.4704 8.27327 43.4409 8.07736 43.4524C7.88146 43.464 7.69011 43.5163 7.51557 43.606C7.09809 43.5287 7.07335 43.821 6.78656 43.54C6.24349 43.3828 5.67024 43.7741 5.12417 43.7334V43.7283C4.75981 43.6686 4.39019 43.6472 4.02136 43.6645C3.85267 43.6511 3.71431 43.5277 3.5497 43.4895C3.32477 43.4434 2.94401 43.5423 2.76106 43.4906C2.72647 43.5021 2.68405 43.5856 2.62091 43.5948C2.55412 43.6154 2.50906 43.5652 2.53173 43.5125C2.56749 43.0548 2.57857 42.5954 2.56492 42.1365C2.61404 41.9181 2.39777 41.7999 2.37288 41.6228C2.52713 41.2602 2.5902 40.8653 2.55657 40.4726C2.69004 39.7772 2.73366 39.0675 2.68637 38.361C2.67173 38.0901 2.69705 37.8185 2.76152 37.555C2.78624 37.2852 2.6489 37.022 2.66446 36.7511C2.72216 36.5307 2.75254 36.3041 2.75491 36.0764C2.6356 35.8332 2.58078 35.5635 2.59573 35.2931C2.57275 35.262 2.55625 35.2267 2.54722 35.1891C2.53819 35.1515 2.53681 35.1125 2.54315 35.0744C2.5495 35.0363 2.56345 34.9999 2.58417 34.9673C2.60489 34.9347 2.63195 34.9065 2.66376 34.8846C2.82072 34.3416 2.42921 33.7683 2.4703 33.2222H2.47539C2.53508 32.8579 2.55642 32.4882 2.53906 32.1194C2.79198 31.4983 2.802 30.8048 2.56712 30.1767C2.3975 29.3433 2.81688 28.3571 2.37288 27.5981C2.69765 26.943 2.46386 26.1224 2.71553 25.4385C2.66523 24.8026 2.68062 24.1631 2.76145 23.5303C2.78619 23.2604 2.64885 22.9972 2.66438 22.7266C2.73295 22.5428 2.76241 22.3466 2.75089 22.1507C2.73938 21.9548 2.68714 21.7635 2.5975 21.5889C2.67438 21.1713 2.38276 21.1465 2.66362 20.8599C2.82065 20.3169 2.42913 19.7436 2.47022 19.1975H2.47532C2.5056 19.0506 2.5129 18.8999 2.49697 18.7508C2.56636 18.5392 2.58081 18.3134 2.53895 18.0947C2.70408 17.7801 2.75993 17.4196 2.6977 17.0698C2.82467 16.5712 2.45869 16.1535 2.52877 15.6643C2.59176 15.2059 2.54775 14.5574 2.56475 14.0872C2.61477 13.8707 2.39715 13.7491 2.37281 13.5733C2.37142 13.5464 2.37824 13.5198 2.39238 13.4969C2.40651 13.474 2.42729 13.456 2.45194 13.4453C2.60176 13.3907 2.5457 13.2643 2.67112 13.2733C2.83865 13.3658 2.8944 13.2552 3.37413 13.4226C3.73362 13.3546 4.1106 13.4888 4.47645 13.3933C4.74735 13.3788 5.01891 13.4042 5.28241 13.4687C5.55226 13.4932 5.81548 13.3561 6.08634 13.3716C6.27017 13.4402 6.46629 13.4697 6.66216 13.4581C6.85802 13.4465 7.04931 13.3941 7.22377 13.3044C7.64108 13.3823 7.66526 13.0893 7.95279 13.3706C8.49591 13.5278 9.06905 13.1365 9.61516 13.1775V13.1823C9.97954 13.242 10.3492 13.2634 10.718 13.2461C11.339 13.4991 12.0326 13.5091 12.6607 13.2741C13.4942 13.1048 14.4799 13.5237 15.2393 13.0799C15.8378 13.3871 16.5909 13.1936 17.2161 13.3704C17.6412 13.4387 18.0738 13.4464 18.5011 13.3934C18.9553 13.3354 19.3498 13.5701 19.8065 13.4129C19.6745 13.7645 19.9338 13.9893 19.7303 14.3432C19.4584 15.511 19.787 16.7815 21.2515 16.3764C22.7547 16.2212 24.5482 16.6594 26.0371 16.385C27.5249 16.2269 30.5888 17.2421 30.0909 14.6939C29.8163 14.2415 30.0143 13.7296 30.0354 13.2478C30.5179 13.2158 31.2466 13.4324 31.5645 13.3942C32.1546 13.3826 32.7448 13.4075 33.3318 13.4687C33.6017 13.4932 33.8649 13.3561 34.1355 13.3717C34.3194 13.4403 34.5155 13.4698 34.7114 13.4583C34.9074 13.4467 35.0987 13.3944 35.2732 13.3046C35.6903 13.3824 35.7146 13.0893 36.0022 13.3706C36.5452 13.5279 37.1186 13.1365 37.6644 13.1775V13.1823C37.9581 13.2529 37.9129 13.1556 38.4884 13.2769C38.7687 13.1816 38.9892 13.3278 39.2391 13.4211C39.8964 13.422 40.5523 13.36 41.1978 13.2359C41.6552 13.3016 42.3054 13.2529 42.7748 13.272C42.9918 13.3207 43.1126 13.1049 43.2888 13.0799C43.6514 13.2343 44.0463 13.2975 44.439 13.2639C44.8741 13.3348 45.3129 13.3815 45.7533 13.4038C46.146 13.4919 46.5747 13.3347 46.9565 13.4015C47.068 13.4185 47.0411 13.4221 47.0375 13.4687C47.0108 13.482 47.1308 13.3808 47.1343 13.4348C46.8841 13.6558 47.1608 14.0224 47.2034 14.2846C47.1927 14.3913 47.1934 14.4987 47.2055 14.6052C47.2285 14.6363 47.2451 14.6716 47.2541 14.7092C47.2632 14.7468 47.2646 14.7859 47.2582 14.824C47.2519 14.8622 47.2379 14.8986 47.2171 14.9313C47.1964 14.9639 47.1692 14.992 47.1374 15.0139C46.9804 15.5569 47.3717 16.13 47.3308 16.676H47.3257C47.266 17.0405 47.2447 17.4102 47.2621 17.7791C47.009 18.4001 46.999 19.0937 47.234 19.7218C47.4033 20.5552 46.9842 21.5412 47.4283 22.3002C47.2738 22.6628 47.2107 23.0577 47.2443 23.4504C47.111 24.1458 47.0675 24.8555 47.1149 25.562V25.562Z" fill="black"/>
<path d="M23.5308 11.2488C23.6206 11.417 23.7514 11.5598 23.9112 11.6639C24.071 11.7679 24.2546 11.8298 24.4448 11.8437C24.6347 11.9725 24.8583 12.0424 25.0877 12.0447C25.3172 12.0471 25.5422 11.9817 25.7346 11.8568C25.9053 11.8403 26.0686 11.7785 26.2073 11.6777C26.346 11.5769 26.4552 11.4407 26.5235 11.2834C26.7285 11.0057 26.8677 10.685 26.9307 10.3456C26.9937 10.0063 26.9789 9.65701 26.8874 9.32418C26.2366 7.04669 23.0998 7.68203 22.7891 9.70979C22.8155 9.89155 22.8604 10.0701 22.9231 10.2428C22.8165 10.772 23.1755 10.9853 23.5308 11.2488ZM24.2185 9.85445C24.2463 9.81674 24.3204 9.80833 24.3202 9.76908C24.2716 9.61926 24.4552 9.67813 24.5362 9.6835C24.5931 9.68376 24.5793 9.6147 24.6152 9.58998C24.6532 9.56425 24.7049 9.58158 24.7266 9.52528C24.7429 9.44756 24.7929 9.26283 24.9093 9.32984C25.2657 9.42718 25.2457 9.5138 25.386 9.54362C25.4416 9.53063 25.5465 9.47967 25.5677 9.51661C25.5817 9.53644 25.5534 9.57904 25.5353 9.6114C25.437 9.76531 25.5815 9.81194 25.5343 9.92508C25.4256 10.0611 25.5568 10.0938 25.3501 10.1554C25.4036 10.2438 25.243 10.2334 25.239 10.3705C25.2168 10.4586 25.1146 10.4023 25.057 10.3957C25.0081 10.3888 24.9811 10.5374 24.9068 10.5223C24.8454 10.5066 24.8229 10.3827 24.7745 10.4135C24.6154 10.5387 24.6733 10.5376 24.5439 10.4716C24.4155 10.5318 24.4589 10.437 24.5123 10.3519C24.569 10.2046 24.1546 10.2214 24.1778 9.99362C24.2489 9.95892 24.1968 9.88655 24.2185 9.85445H24.2185Z" fill="black"/>
<path d="M42.6069 22.4282C42.4058 22.1973 41.6449 22.3332 41.3551 22.2223V22.1398C41.0662 22.2763 40.7701 22.0386 40.4479 22.1734C40.2933 22.2277 40.1401 22.3482 39.9737 22.3347C39.6168 22.2397 39.2434 22.2237 38.8796 22.2878C38.5647 22.1572 38.2232 22.1036 37.8835 22.1316C37.3435 22.1813 37.2206 21.9283 36.5646 22.1665C35.6472 22.139 34.7636 22.0661 33.842 22.0462C33.1531 21.946 32.5342 22.1739 31.8606 22.0911C31.1231 22.0582 30.3842 22.0745 29.6488 22.1398V22.2066C29.4037 22.2798 29.1492 22.317 28.8933 22.3169C28.8113 22.3893 28.7184 22.35 28.6224 22.3429C28.1161 22.5381 28.206 22.7437 28.2514 22.9812C28.3388 23.25 28.8151 23.3721 29.0633 23.4608C29.379 23.4469 29.405 23.3433 29.6488 23.5678V23.476C29.7775 23.5387 29.924 23.4829 30.0218 23.4977C30.1958 23.5671 30.3869 23.5818 30.5694 23.5397C30.9377 23.6829 30.99 23.7823 31.4248 23.6987C31.6877 23.7495 31.96 23.7029 32.191 23.5678C32.8806 23.4027 33.7397 23.8119 34.3434 23.3736C34.9035 23.7038 35.5607 23.4599 36.1457 23.7164C36.4435 23.6483 36.7601 23.7824 37.0658 23.6871C37.2927 23.6726 37.5204 23.6982 37.7385 23.7625C37.9638 23.787 38.1837 23.6499 38.4094 23.6654C38.6 23.6784 38.7855 23.7997 38.9728 23.7559C39.1071 23.7246 39.2223 23.6106 39.3588 23.5984C39.7311 23.6741 39.7204 23.3808 39.9676 23.6644C40.419 23.8221 40.8998 23.4302 41.355 23.4713V23.5523C41.597 23.3124 41.5112 23.3936 41.938 23.4229C42.1869 23.3337 42.6612 23.2129 42.7499 22.943C42.8 22.7403 42.8295 22.5505 42.6069 22.4282Z" fill="black"/>
<path d="M42.607 27.9962C42.4014 27.7647 41.6479 27.902 41.3551 27.7906V27.708C41.0663 27.8441 40.7701 27.6071 40.448 27.7414C40.2933 27.7959 40.1402 27.9162 39.9738 27.9029C39.6168 27.8078 39.2434 27.7918 38.8796 27.856C38.5648 27.7252 38.2233 27.6717 37.8836 27.6998C37.3435 27.7495 37.2206 27.4965 36.5647 27.735C35.6474 27.7069 34.7636 27.6343 33.842 27.6145C33.1564 27.5148 32.5334 27.7413 31.8606 27.6593C31.1231 27.6262 30.3842 27.6425 29.6488 27.708V27.7748C29.4037 27.848 29.1492 27.8852 28.8933 27.8851C28.8112 27.9572 28.7185 27.9183 28.6225 27.9111C28.1168 28.1058 28.2056 28.3112 28.2515 28.5492C28.3389 28.8185 28.815 28.9398 29.0633 29.029C29.3766 29.0149 29.4072 28.9122 29.6488 29.136V29.0442C29.7775 29.1069 29.924 29.0511 30.0219 29.0659C30.1959 29.1351 30.3869 29.1498 30.5694 29.1079C30.938 29.2511 30.9898 29.3502 31.4248 29.2669C31.6877 29.3175 31.9599 29.2709 32.1911 29.1359C32.8805 28.9704 33.7398 29.3804 34.3434 28.9418C34.9035 29.2718 35.5607 29.028 36.1457 29.2846C36.4435 29.2165 36.7601 29.3505 37.0658 29.2552C37.2928 29.2408 37.5204 29.2663 37.7385 29.3306C37.9638 29.3551 38.1837 29.218 38.4095 29.2336C38.6001 29.2466 38.7856 29.3679 38.9728 29.324C39.1071 29.2924 39.2223 29.1788 39.3589 29.1666C39.7304 29.2415 39.7208 28.9492 39.9676 29.2326C40.419 29.3898 40.8999 28.9984 41.3551 29.0392V29.1204C41.5974 28.8801 41.5102 28.9619 41.9381 28.9908C42.1869 28.902 42.6612 28.7808 42.7499 28.5112C42.8001 28.3078 42.8294 28.119 42.607 27.9962Z" fill="black"/>
<path d="M36.5372 33.4406C36.4779 33.4502 36.4214 33.4831 36.3783 33.4146C36.2284 33.4232 36.0783 33.4041 35.9354 33.3583V33.2756C35.889 33.2665 35.8429 33.3557 35.7978 33.3355C35.7401 33.2966 35.6731 33.2736 35.6036 33.2689C35.5342 33.2642 35.4647 33.2781 35.4023 33.309C35.3114 33.3636 35.2214 33.4838 35.1236 33.4706C35.0155 33.4322 34.9025 33.4098 34.788 33.4041C34.6674 33.3065 34.5943 33.3957 34.4807 33.4237C34.3051 33.3457 34.1054 33.1939 33.8952 33.2672C33.8472 33.2855 33.7953 33.2909 33.7447 33.2827C33.694 33.2745 33.6464 33.2531 33.6067 33.2206C33.4425 33.1365 33.2762 33.2456 33.12 33.3024C32.5732 33.2745 32.073 33.2025 31.5198 33.1821C30.9867 33.0784 30.7377 33.3269 30.3553 33.2271C30.0606 33.2071 29.7647 33.2167 29.4719 33.2558C29.3063 33.2163 29.197 33.1587 29.0555 33.2756V33.3424C28.7889 33.4955 28.6496 33.399 28.5768 33.4871C28.1277 33.4083 28.1124 34.2851 28.443 34.4108C28.5583 34.5025 28.6765 34.6557 28.8198 34.5698C29.0216 34.5331 28.97 34.6345 29.0555 34.7036V34.6119C29.1312 34.6745 29.2171 34.6187 29.2747 34.6335C29.4377 34.7298 29.4244 34.7059 29.5965 34.6756C29.8245 34.803 29.7808 34.9225 30.0993 34.8343C30.179 34.8581 30.2638 34.8584 30.3436 34.8352C30.4235 34.812 30.495 34.7663 30.5495 34.7036C30.73 34.6009 31.2196 34.7428 31.5624 34.7013C31.6948 34.7385 31.7313 34.5178 31.8147 34.5094C32.0541 34.7678 32.0997 34.6348 32.3788 34.6934C32.6133 34.805 32.6207 34.6733 32.8739 34.8521C33.0418 34.7836 33.234 34.9179 33.4146 34.8228C33.5639 34.7709 33.6646 34.8713 33.8101 34.898C33.9423 34.9227 34.0715 34.7856 34.2043 34.8009C34.3164 34.8142 34.4255 34.9352 34.5355 34.8914C34.6143 34.8601 34.682 34.7464 34.7623 34.7342C34.9995 34.7943 34.9906 34.5306 35.1201 34.8002C35.3747 34.9584 35.6703 34.5673 35.9355 34.6068V34.6878C35.9663 34.6937 35.9971 34.5369 36.0285 34.5367C36.1288 34.4997 36.1899 34.5601 36.2782 34.5583C36.7186 34.4201 37.018 33.7273 36.5372 33.4406Z" fill="black"/>
</svg>
